<?xml version="1.0" encoding="utf-8"?>
<!-- Generator: Adobe Illustrator 28.3.0, SVG Export Plug-In . SVG Version: 6.00 Build 0)  -->
<svg version="1.1" id="Layer_1" xmlns="http://www.w3.org/2000/svg" xmlns:xlink="http://www.w3.org/1999/xlink" x="0px" y="0px"
	 viewBox="0 0 360 360" style="enable-background:new 0 0 360 360;" xml:space="preserve">
<style type="text/css">
	.st0{fill:#FFFFFF;}
	.st1{fill:#CCC2A6;}
	.st2{fill:#504B3B;}
	.st3{fill:#010101;}
	.st4{display:none;}
	.st5{display:inline;}
	.st6{fill:#D95C5C;}
	.st7{display:inline;fill:#010101;}
	.st8{fill:#D95C5C;stroke:#010101;stroke-width:0.1482;stroke-linecap:round;stroke-linejoin:round;stroke-miterlimit:10;}
</style>
<g id="Layer_2_00000005963455600693146820000009381798130777103537_">
	<g>
		<g>
			<path class="st0" d="M122,161.2c-1.2,14.4,6.1,38,25.1,32c8.6-2.7,11.4-10.8,13.7-18.6c2.1-7.3,4.1-14.6,6.2-21.8
				c-8.4,0-16.7,0-25.1,0c3.6,8.6,7.1,17.3,10.6,25.9c2.7,6.5,8.6,11.1,16,9.1c6.1-1.7,11.8-9.5,9.1-16c-3.6-8.6-7.1-17.3-10.6-25.9
				c-2.2-5.4-6.3-9.5-12.5-9.5c-5.7,0-11,4-12.5,9.5c-2.1,7.3-4.1,14.6-6.2,21.8c-0.4,1.3-1.8,4-1.5,5.1c4.9-0.5,9.8-0.9,14.8-1.4
				c0.4,0.8,0.3,0.3-0.4-1.4c-0.8-3.1-0.8-5.6-0.6-8.8c0.6-7-6.4-13-13-13C127.5,148.2,122.6,154.2,122,161.2L122,161.2z"/>
		</g>
	</g>
	<g>
		<g>
			<path class="st0" d="M182.4,159.6c3.9,13.4,7.8,26.8,11.7,40.2c3.4,11.6,22.6,13.2,25.1,0c2.9-15.1,5.7-30.3,8.5-45.4
				c-7.9,1-15.8,2.1-23.8,3.1c3.2,6.6,6.4,13.2,9.7,19.8c3.1,6.3,12,8,17.8,4.7c6.4-3.8,7.8-11.5,4.7-17.8
				c-3.2-6.6-6.4-13.2-9.7-19.8c-4.8-9.7-21.7-7.7-23.8,3.1c-2.9,15.1-5.7,30.3-8.5,45.4c8.4,0,16.7,0,25.1,0
				c-3.9-13.4-7.8-26.8-11.7-40.2C202.8,136.6,177.7,143.5,182.4,159.6L182.4,159.6z"/>
		</g>
	</g>
</g>
<g id="Layer_1_00000139974660714558850110000009972137620961025688_">
	<g>
		<g>
			<path class="st1" d="M221.3,146.6c0,6.6,1.8,12.9,2.5,19.4c0.6,5.2,0.5,11.8-4.7,14.7c-3.7,2.1-4.1,8.5,0,10.4
				c8.7,4.1,17.7-1.4,17.7-11.2c0-7.8-12-7.8-12.1,0c-0.3,0.8-0.1,1,0.4,0.7c0,3.5,0,6.9,0,10.4c17.1-9.4,8.3-29.6,8.2-44.5
				C233.3,138.9,221.2,138.9,221.3,146.6L221.3,146.6z"/>
		</g>
	</g>
	<g>
		<g>
			<path class="st1" d="M132.3,182.1c-5.1-10.1-1.6-22.2,8.5-27.6c4.7-2.5,2.7-10.5-2.8-10.1c-4.8,0.3-9.5,0.6-14.2,0.9
				c-3.2,0.2-5.1,2.4-5.4,5.4c-1.3,12.7-1.5,25.5-0.5,38.3c0.5,6.9,11.4,7,10.9,0c-1-12.8-0.8-25.5,0.5-38.3
				c-1.8,1.8-3.6,3.6-5.4,5.4c4.8-0.3,9.5-0.6,14.2-0.9c-0.9-3.4-1.8-6.8-2.8-10.1c-15.5,8.2-20.1,27.3-12.4,42.5
				C126,193.8,135.4,188.3,132.3,182.1L132.3,182.1z"/>
		</g>
	</g>
	<g>
		<g>
			<path class="st1" d="M127.7,209.8c34.3,6.7,69,6.6,103.2-0.1c-3.6-8.6-7.2-17.2-10.9-25.8c-9.6,7-19.8,13.2-30.5,18.4
				c-4.6,2.2-8.7,4-13.5,5.7c-1.9,0.7-5.8,1.8-6.8,2c0.8-0.1-2.4,0.1-2.9,0.1c2,0.2-2-0.8-0.4,0c-6.9-3.2-15.2-1.9-19.3,5.1
				c-3.6,6.1-1.9,16,5.1,19.3c15.8,7.4,30.6,1.8,45.6-4.8c13.1-5.7,25.4-12.9,36.9-21.4c5.7-4.1,8.8-10.8,5.8-17.6
				c-2.9-6.7-9.6-9.6-16.6-8.2c-29,5.7-59.2,5.7-88.2,0.1c-7.5-1.4-15.2,2.1-17.3,9.8C116,199.4,120.2,208.4,127.7,209.8
				L127.7,209.8z"/>
		</g>
	</g>
	<g>
		<g>
			<path class="st1" d="M166,131.4c7.6,0,14.1-6.5,14.1-14.1c0-7.6-6.4-14.1-14.1-14.1c-7.6,0-14.1,6.5-14.1,14.1
				C151.9,125,158.4,131.4,166,131.4L166,131.4z"/>
		</g>
	</g>
	<g>
		<g>
			<path class="st1" d="M128.2,143.2c9.1,3,18.2,0.7,26.6-3.3c6-2.9,10.2-6.9,16.3-6.1c5.5,0.7,13.3,3.9,19.3,5.8
				c8,2.6,15.9,5.2,23.9,7.8c-3.4-4.5-6.9-9.1-10.4-13.6c0.1,2.1,0.3,4.1,0.4,6.2c7.1-4.1,14.1-8.1,21.2-12.2
				c-9.9-6.1-21.4-8-32.8-5.9c-6.2,1.1-11.1,3.8-15.7,8c-4,3.7-8,7.4-12.1,11.1c6.6,0,13.3,0,19.9,0c-15.2-15.8-37-22.2-58.4-17.9
				c-7.5,1.5-11.8,10.4-9.8,17.3c2.1,7.8,9.8,11.4,17.3,9.8c1.7-0.3,2-0.4,0.8-0.2c1-0.1,2-0.2,3-0.2c1.5-0.1,3,0,4.6,0
				c1.8,0.2,2,0.2,0.8,0c0.8,0.1,1.5,0.2,2.2,0.4c1.7,0.4,3.5,0.8,5.2,1.3c5.2,1.7,10.1,4.9,14.4,9.4c5.4,5.6,14.4,5.1,19.9,0
				c4.9-4.5,9.8-9,14.8-13.5c-2.1,1.2-4.1,2.4-6.2,3.6c4.5-1.8,5.8-2.1,10.1-1.8c-1.1-0.3-0.8-0.2,0.9,0.1c1,0.2,2.1,0.5,3.1,0.8
				c1.6,0.5,1.7,0.7,3.8,2c8.7,5.3,21.9-1.4,21.2-12.2c-0.1-2.1-0.3-4.1-0.4-6.2c-0.4-6.5-4.1-11.6-10.4-13.6
				c-7.6-2.5-15.3-5-23-7.5c-7.3-2.4-14.6-5.2-22.2-6.4c-9.3-1.5-17.6-0.2-26.1,3.9c-3.1,1.5-6,3.5-9.2,4.9c-1.4,0.6-2.3,1.1-4,1.3
				c-1.9,0.2,1.7,0.7-1.7-0.5c-7.2-2.4-15.4,2.8-17.3,9.8C116.2,133.5,120.9,140.8,128.2,143.2L128.2,143.2z"/>
		</g>
	</g>
	<g>
		<g>
			<path class="st1" d="M122.3,222.8c16.5,14.9,38.6,27.5,61.7,25.5c22.5-2,42.6-15.9,53.7-35.4c3.8-6.6,1.6-15.4-5.1-19.3
				c-6.5-3.8-15.5-1.6-19.3,5.1c-3.6,6.3-8.2,11.4-13.6,15c-1.7,1.1-3.4,2.1-5.2,3.1c-0.9,0.5-1.8,0.9-2.7,1.3
				c1.1-0.5,0.8-0.4-0.8,0.2c-1.9,0.6-3.8,1.1-5.7,1.6c-1.7,0.3-1.9,0.4-0.6,0.2c-0.7,0.1-1.4,0.1-2.2,0.2
				c-14.7,0.8-29-7.1-40.3-17.3c-5.6-5.1-14.4-5.6-19.9,0C117.1,208,116.6,217.7,122.3,222.8L122.3,222.8z"/>
		</g>
	</g>
	<g>
		<g>
			<path class="st1" d="M120.6,201.1c3.4-9.3-5.7-18.7-15.1-16.4c-11,2.6-12.3,14.7-10.6,24c1.5,8.2,5.7,18.9,14.8,20.6
				c4.9,0.9,9.8-1.4,12.5-5.6c3-4.7,2.6-10,1.1-15.1c-3.3-11.2-20.9-6.5-17.6,4.9c0.3,2.4,0.7,2.4,1.2,0.1c1.3-0.8,2.7-1.6,4-2.4h0
				c1.5,0.4,3.1,0.8,4.6,1.2c0.5,0.9,0.5,1,0,0.2c-0.4-0.7-0.8-1.4-1.1-2.1c-0.5-1.1-0.8-2.2-1.2-3.4c-0.4-1.4-0.8-2.8-0.9-4.2
				c0-0.3,0-0.7,0-1c0.2-2.4-1.3-2.2-4.5,0.7c-1.3-0.8-2.7-1.6-4-2.4c-0.3-1.4-0.5-2.7-0.8-4c-1.7,4.6,1.9,10,6.4,11.2
				C114.4,208.8,118.9,205.7,120.6,201.1L120.6,201.1z"/>
		</g>
	</g>
	<g>
		<g>
			<path class="st1" d="M243.1,196.5c1.4-1.2,2.8-2.3,4.1-3.5c0.5-0.4,0.9-0.8,1.4-1.2c1.5-1.4,1.8-1.6,0.9-0.7c-1.6,0-3.2,0-4.9,0
				c0.4,0.1,0.8,0.1,1.2,0.2c-1.3-0.8-2.7-1.6-4-2.4c-1.7-1.4-0.2-5.9-2-1c-0.6,1.7-1,2.8-1.1,4.7c-0.2,3,0.5,5.4,1.7,8.2
				c1.6,3.7,6.7,5.1,10.3,4.2c0.9-0.2,1.8-0.4,2.7-0.7c-3.4-4.5-6.9-8.9-10.3-13.4c-1,1.9-2,3.9-3,5.9c-0.4,0.8-0.9,1.7-1.3,2.5
				c-1.4,2.2-0.5,2,2.9-0.4c1.3,0.8,2.7,1.6,4,2.4c0.2,1.2,0.2,2.4,0,3.7c5.7-10.3-10-19.5-15.8-9.2c-4.8,8.6-0.8,19.6,9.4,21.4
				c11.2,2,15.4-8.9,19.5-16.9c3.6-7.1-2.3-15.3-10.3-13.4c-0.9,0.2-1.8,0.4-2.7,0.7c3.4,1.4,6.9,2.8,10.3,4.2
				c-0.2-0.4-0.3-0.7-0.5-1.1c0.4,1.5,0.8,3.1,1.2,4.6c0-1.4-0.1-1.6-0.2-0.6c0.5-1.2,1-2.5,1.6-3.7c0.5-1.6,0.9-3.5,0.9-5.3
				c-0.1-4.4-2.4-8.7-6.2-10.9c-8.7-5.1-16.7,3.8-22.8,8.9c-3.8,3.2-3.3,9.6,0,12.9C233.9,200.3,239.4,199.7,243.1,196.5
				L243.1,196.5z"/>
		</g>
	</g>
	<g>
		<g>
			<path class="st1" d="M244.3,220.6c11.7,0,11.8-18.2,0-18.2C232.6,202.4,232.6,220.6,244.3,220.6L244.3,220.6z"/>
		</g>
	</g>
	<g>
		<g>
			<path class="st2" d="M75.6,198.6c-4.8-0.4-9.2,2.3-11.3,6.5c-2.8,5.5,0.6,12.8,7.3,12.6c-0.7-0.3-1.3-0.7-1.7-1.3
				c3.4-3.4,6.9-6.9,10.3-10.3c-0.6-0.2-1.2-0.4-1.8-0.5c-8.7-2.7-13.1,8-8.2,14.1c4.8,5.9,12.1,9,19.6,8.9
				c5.6-0.1,9.4-5.3,8.1-10.6c-1.7-6.9-3.3-13.9-4.9-20.8c-1.4-5.7-10.1-8.7-14.1-3.7c-1,1.2-2,2.5-3,3.8c4.4,3.4,8.8,6.8,13.2,10.2
				c5.8-10.6,12.8-20.2,21.2-28.9c7.5-7.8-4.4-19.7-11.9-11.9c-9.3,9.7-17.3,20.6-23.8,32.3c-4.4,8,7,17.9,13.2,10.2
				c1-1.2,2-2.5,3-3.8c-4.7-1.2-9.4-2.5-14.1-3.7c1.7,6.9,3.3,13.9,4.9,20.8c2.7-3.6,5.4-7.1,8.1-10.6c-3.5,0.1-5.6-1.3-7.7-3.9
				c-2.7,4.7-5.4,9.4-8.2,14.1c0.6,0.2,1.2,0.4,1.8,0.5c6.1,1.9,12.1-4.3,10.3-10.3c-2-6.6-7.4-11.2-14.5-11
				c2.4,4.2,4.8,8.4,7.3,12.6c0.1-0.1,0.2-0.2,0.3-0.4c-1.2,0.7-2.5,1.4-3.7,2.2c0.1,0,0.2,0,0.3,0
				C86.4,216.2,86.3,199.4,75.6,198.6L75.6,198.6z"/>
		</g>
	</g>
	<g>
		<g>
			<path class="st2" d="M114.7,188.2c6.1,0,6.1-9.5,0-9.5C108.6,178.7,108.6,188.2,114.7,188.2L114.7,188.2z"/>
		</g>
	</g>
	<g>
		<g>
			<path class="st2" d="M64.1,210.2c6.1,0,6.1-9.5,0-9.5C58,200.7,58,210.2,64.1,210.2L64.1,210.2z"/>
		</g>
	</g>
	<g>
		<g>
			<path class="st2" d="M75.1,241.9c9.6-2.6,18-7.6,25-14.6c-2.6-0.7-5.3-1.4-7.9-2.1c3.7,12.6,16.5,12.4,27.3,12.7
				c12.1,0.3,19.3,12.1,30.9,14.3c-0.9-2.3-1.9-4.6-2.8-7c-1.4,2.5-2.7,5.1-4.1,7.6c-2.9,5.4,5.3,10.2,8.2,4.8
				c1.4-2.5,2.7-5.1,4.1-7.6c1.3-2.5,0.3-6.3-2.8-7c-9.1-1.8-15.3-9.9-23.9-13.1c-5.2-1.9-10.5-1.4-15.9-1.6
				c-4.5-0.1-10.3-0.8-11.8-5.8c-1-3.4-5.4-4.7-7.9-2.1c-5.9,5.9-12.7,10-20.8,12.1C66.7,234.3,69.2,243.4,75.1,241.9L75.1,241.9z"
				/>
		</g>
	</g>
	<g>
		<g>
			<path class="st2" d="M151.5,254c-11-6.7-20-15.8-26.8-26.7c-2.5,1.9-5,3.8-7.4,5.7c7.4,8.4,9,20.2,5.2,30.5
				c2.9-0.4,5.8-0.8,8.7-1.1c-4.6-8.8-9.2-17.6-13.8-26.4c-1.4,2.4-2.7,4.8-4.1,7.1c3.4,0.2,5.3,4.1,4.6,7.1c3.1,0,6.1,0,9.1,0
				c-2.9-9-12.1-15.9-21.5-11.4c-8.8,4.2-10.4,15.4-4.3,22.5c3.5,4,10.5-1.3,7.4-5.7c-5.3-7.9-11.4-15.2-18.3-21.8
				c-1.5,2.6-3.1,5.3-4.6,7.9c1.9,0.7,3.7,0.7,5.7,0.1c0.8-0.2,1.5-0.6,2.2-1c0.6-0.3,2.7-2,1.8-0.6c-2.9,4.7,3.6,9.3,7.4,5.7
				c1.9-1.8,3.9-3.6,5.8-5.4c4.5-4.1-2.2-10.8-6.7-6.7c-1.9,1.8-3.9,3.6-5.8,5.4c2.5,1.9,5,3.8,7.4,5.7c2.8-4.5,2.2-10.3-2.4-13.4
				c-2-1.3-4.3-1.9-6.7-1.4c-1.4,0.2-5,2.8-6.2,2.4c-4.5-1.7-7.9,4.8-4.6,7.9c6.3,6,12,12.6,16.9,19.9c2.5-1.9,5-3.8,7.4-5.7
				c-2.2-2.6-0.8-6.8,2.5-7.6c3.8-0.9,6.4,2.5,7.5,5.7c1.4,4.3,8,4.8,9.1,0c2.2-9.2-4-18.6-13.7-19.1c-3.8-0.2-5.7,4.1-4.1,7.1
				c4.6,8.8,9.2,17.6,13.8,26.4c2,3.9,7.4,2.4,8.7-1.1c5-13.6,1.9-28.9-7.6-39.7c-3.6-4-10.3,1.2-7.4,5.7
				c7.7,12.3,17.8,22.6,30.2,30.1C151.9,265.4,156.7,257.2,151.5,254L151.5,254z"/>
		</g>
	</g>
	<g>
		<g>
			<path class="st2" d="M105.5,255.1c6.1,0,6.1-9.5,0-9.5C99.4,245.6,99.4,255.1,105.5,255.1L105.5,255.1z"/>
		</g>
	</g>
	<g>
		<g>
			<path class="st2" d="M234.2,159.5c0.3,4.7,0.6,9.4,0.9,14.2c0.4,6.1,9.9,6.1,9.5,0c-0.3-4.7-0.6-9.4-0.9-14.2
				C243.3,153.5,233.9,153.4,234.2,159.5L234.2,159.5z"/>
		</g>
	</g>
	<g>
		<g>
			<path class="st2" d="M285.9,201.9c2.8,0,5.5,0,8.3,0c2.6,0,4.7-2.2,4.7-4.7c0-2.6-2.2-4.7-4.7-4.7c-2.8,0-5.5,0-8.3,0
				c-2.6,0-4.7,2.2-4.7,4.7C281.2,199.7,283.4,201.9,285.9,201.9L285.9,201.9z"/>
		</g>
	</g>
	<g>
		<g>
			<path class="st2" d="M256.2,208.7C255.8,206.2,255.8,211.1,256.2,208.7c0,0.3-0.8,2.6-0.4,1.8c0.5-1.2-1.5,2.2-0.1,0.4
				c-0.3,0.4-2.4,2-1,1.1c-3.5,2.4-5.1,6.5-3.4,10.5c1.7,4,5.7,5.7,9.9,4.9c3.9-0.8,7.8-1.5,11.7-2.3c4.3-0.9,7.2-6.2,5.9-10.3
				c-1.5-4.6-5.7-6.8-10.3-5.9c-3.9,0.8-7.8,1.5-11.7,2.3c2.2,5.1,4.3,10.2,6.5,15.4c7.6-5.1,10.6-13.4,9.3-22.3
				c-0.7-4.4-6.4-7.2-10.3-5.9C257.3,199.9,255.4,204,256.2,208.7L256.2,208.7z"/>
		</g>
	</g>
	<g>
		<g>
			<path class="st2" d="M266.1,225.7c5.4,0.2,10.7,0.3,16.1,0.5c6.1,0.2,6.1-9.3,0-9.5c-5.4-0.2-10.7-0.3-16.1-0.5
				C260,216.1,260.1,225.5,266.1,225.7L266.1,225.7z"/>
		</g>
	</g>
	<g>
		<g>
			<path class="st2" d="M218.3,254c10.8-5.7,19.7-13.8,26.9-23.6c-5.1-0.7-10.2-1.3-15.4-2c0.1,0.7,0.2,1.3,0.3,2
				c0.5,3.4,4.8,6.4,8.1,6.2c-0.3,0-0.9-0.5-1-0.5c0.3,0-0.7,1.3-0.7,1.3c1.2-0.7,2.5-1.4,3.7-2.2c0,0,0.1,0,0.1,0
				c1.4,0.4,2.8,0.8,4.2,1.1c0.1,0,0.1,0,0.1,0c0.7,1.2,1.4,2.5,2.2,3.7c-0.1-0.3-0.2-0.6-0.3-0.9c0,1.5,0,3,0,4.5
				c0.1-0.3,0.1-0.6,0.2-0.9c2.4-10.5-13.9-15.1-16.2-4.5c-1.3,5.7,1.5,11.9,7.5,13.5c5.6,1.6,11-1.9,13.7-6.7
				c5.7-10.4-0.3-26-13.5-25.3c2.7,2.1,5.4,4.1,8.1,6.2c-0.1-0.7-0.2-1.3-0.3-2c-1.2-8-11.7-7.1-15.4-2
				c-5.5,7.5-12.6,13.3-20.8,17.6C200.2,244.5,208.7,259,218.3,254L218.3,254z"/>
		</g>
	</g>
	<g>
		<g>
			<path class="st2" d="M252.4,227.8c0.7-0.7,1.4-1.3,2-2c-2.6-1.5-5.3-3.1-7.9-4.6c-2.5,9.8-4.9,19.6-7.4,29.4
				c2.3-0.9,4.6-1.9,7-2.8c-3.5-1.6-5-5.9-8.5-7.8c-3.4-1.8-7.9-1.6-11.3,0.2c-7.2,4-8.8,14.1-3.7,20.2c3.6,4.4,9.7-1.2,7.4-5.7
				c-2.1-4.4-5.6-7.6-10.8-6.9c-4.6,0.6-8.1,4.2-9.1,8.7c-1.3,6,7.9,8.5,9.1,2.5c0.7-3.3,1.6-1.5,2.5,0.5c2.5-1.9,5-3.8,7.4-5.7
				c-2.4-2.9,2.1-6.9,5.1-4.4c2.6,2.2,3.7,5.1,7,6.6c2.7,1.2,6.1,0.4,7-2.8c2.5-9.8,4.9-19.6,7.4-29.4c1.2-4.6-4.5-7.9-7.9-4.6
				c-0.7,0.7-1.4,1.3-2,2C241.4,225.4,248.1,232.1,252.4,227.8L252.4,227.8z"/>
		</g>
	</g>
	<g>
		<g>
			<path class="st2" d="M266.6,157.2c2.5,0.3,4.9,0.6,7.4,0.8c2.5,0.3,4.8-2.4,4.7-4.7c-0.1-2.8-2.1-4.4-4.7-4.7
				c-2.5-0.3-4.9-0.6-7.4-0.8c-2.5-0.3-4.8,2.4-4.7,4.7C262,155.3,264,156.9,266.6,157.2L266.6,157.2z"/>
		</g>
	</g>
	<g>
		<g>
			<path class="st2" d="M252.1,148.7c2.4,2.3,4.8,4.6,7.1,6.9c1.2-4.7,2.5-9.4,3.7-14.1c-10,1.9-16.9,10.3-23.8,17.2
				c4.4,3.4,8.8,6.8,13.2,10.2c0.2-0.3,0.4-0.7,0.6-1c-1,1-2,2-3,3c-1.6,1.2-4.7-1.6-1.4,0.9c0.9,0.7,1.8,1.5,2.9,2.1
				c2.6,1.6,5.6,2.2,8.6,1.8c6.2-0.8,9.9-5.4,10.4-11.4c-5.5,0.8-11,1.5-16.5,2.2c3.5,14.8,12.1,27.3,24.4,36.1
				c0.7-5.1,1.3-10.2,2-15.4c-5.4,2-10.8,4-16.2,6c3.5,2.7,7.1,5.4,10.6,8.1c0-7.6,0-15.2,0-22.8c0-10.8-16.8-10.8-16.8,0
				c0,7.6,0,15.2,0,22.8c0,5.1,5.4,10,10.6,8.1c5.4-2,10.8-4,16.2-6c7-2.6,8.1-11.1,2-15.4c-8.7-6.2-14.3-15.7-16.7-26
				c-2.3-9.7-15.8-6.8-16.5,2.2c0,0.3-0.1,0.6-0.1,1c0.4-1.4,0.8-2.8,1.1-4.2c0.9-1.8,5.6,0.1,4.7-2.1c-0.3-0.7-2.2-1.8-2.8-2.2
				c-2-1.3-4.2-2.2-6.6-2.5c-5-0.5-9.6,1.6-12.1,6.1c-4.6,8.3,6.3,17.1,13.2,10.2c4.7-4.7,9.6-11.5,16.4-12.8
				c6.3-1.2,8-9.9,3.7-14.1c-2.4-2.3-4.8-4.6-7.1-6.9C256.2,129.2,244.3,141.1,252.1,148.7L252.1,148.7z"/>
		</g>
	</g>
	<g>
		<g>
			<path class="st2" d="M138,61c-0.8,2.9-1.5,6.1-0.5,9c0.9,2.7,3,5.1,5.8,5.9c5.9,1.6,11.7-5.4,8.1-10.7c-1.4-2.1-4.2-3-6.5-1.7
				c-2.1,1.2-3.1,4.4-1.7,6.5c-0.6-0.9-0.1-2.4,0.8-2.9c0.8-0.5,1.5-0.1,2.3,0c0.1,0.1,0.1,0.1,0.2,0.2c0.2,0.2,0.2,0.2,0-0.1
				c-0.1,0.1-0.1-0.5,0,0c0,0,0-0.6,0-0.7c0.1-0.9,0.4-1.9,0.7-2.8C148.9,57.7,139.7,55.1,138,61L138,61z"/>
		</g>
	</g>
	<g>
		<g>
			<path class="st2" d="M199.8,69.4c4.4-2.2,8.7-4.3,13.1-6.5c5.5-2.7,0.7-10.9-4.8-8.2c-4.4,2.2-8.7,4.3-13.1,6.5
				C189.5,63.9,194.3,72.1,199.8,69.4L199.8,69.4z"/>
		</g>
	</g>
	<g>
		<g>
			<path class="st2" d="M171.8,103.2c12.1,3.9,24.2,8,36.4,11.7c11.7,3.6,25.6,3.1,32.2-8.8c6-10.8,1.2-24.9-8.2-32
				c-5.1-3.8-11.1-5.8-17.4-6.9c-2.7-0.5-5.4-0.8-8.1-1.4c-0.5-0.1-2.4-0.3-2.2-0.7c0.4,0.5,0.9,1,1.3,1.4c0.2,0.9,0.2,1.9,0.1,2.8
				c2.1-9.5-5.8-17.4-15.3-15.3c-16.8,3.7-32.8,11-46.4,21.4c2.1-0.6,4.2-1.1,6.3-1.7c-0.4,0-0.7,0-1.1,0c2.1,0.6,4.2,1.1,6.3,1.7
				c-0.3-0.2-0.6-0.4-0.9-0.6c1.5,1.5,3,3,4.5,4.5c-0.2-0.3-0.4-0.7-0.5-1c0.6,2.1,1.1,4.2,1.7,6.3c0-0.4,0-0.8,0.1-1.1
				c-0.6,2.1-1.1,4.2-1.7,6.3c0.2-0.3,0.4-0.7,0.6-1c-1.5,1.5-3,3-4.5,4.5c0.3-0.2,0.6-0.4,0.9-0.6c13.9-8.1,1.6-29-12.6-21.5
				c-7.6,4-15.3,8-22.9,12.1c-7.6,4.1-14.1,11.1-11.8,20.5c2.4,9.8,12.8,13.6,21.9,13.2c8.6-0.3,16.7-3.5,24.1-7.6
				c5.7-3.1,11.1-7.2,17.1-9.6c6.1-2.4,12.5-2.1,18.8-0.6c15.1,3.6,28.6,11.8,44,14.3c8.9,1.4,18.3-5.4,15.3-15.3
				c-0.4-1.3-0.8-2.6-1.2-3.9c-1.9-6.4-8.7-10.5-15.3-8.7c-6.9,1.9-10,8.7-8.7,15.3c3.5,18.1,7.1,36.2,10.6,54.3
				c2.5,12.7,20.5,10.9,24,0c2.5-8,2.6-16.4,0.5-24.5c-4-15.5-28-8.9-24,6.6c1.1,4.1,0.8,7.2-0.4,11.3c8,0,16,0,24,0
				c-3.5-18.1-7.1-36.2-10.6-54.3c-8,2.2-16,4.4-24,6.6c0.4,1.3,0.8,2.6,1.2,3.9c5.1-5.1,10.2-10.2,15.3-15.3
				c-21.1-3.4-39.6-17.3-61.6-16.4c-11.1,0.4-20.8,4.8-30.2,10.4c-3.9,2.3-7.7,4.9-11.8,6.6c-2.1,0.9-4.6,1.8-6.9,2
				c-2.6,0.2-2.1-0.7-0.9,0.6c1.1,1.8,2.1,3.7,3.2,5.5c-4.5,7.1-5.2,9.6-1.8,7.3c1.2-0.6,2.4-1.2,3.5-1.9c2.4-1.2,4.7-2.5,7.1-3.7
				c4.7-2.5,9.4-5,14.1-7.5c-4.2-7.2-8.4-14.3-12.6-21.5c-8.1,4.8-10.5,16.2-3.6,23.2c3.6,3.6,9.2,5.2,14.1,3.8
				c3.5-0.9,6.4-3.8,9.4-5.8c10.5-6.9,21.8-11.7,34.1-14.3c-5.1-5.1-10.2-10.2-15.3-15.3c-2.8,12.8,5.2,23.5,17.4,26.9
				c4.5,1.3,9.2,1.5,13.8,2.6c1.3,0.3,3,0.9,3.8,1.3c-0.6-0.3,1.6,1.3,0.7,0.6c-0.9-0.7,1.4,2,0.3,0.4c0.3,0.4,0.7,2,0.3,0.5
				c0.4,1.5-0.6,1.1,0,0.4c0.6-0.8,1.1-1.8,1.8-2.6c0.1-0.2,1.2-0.5,1.2-0.4c0,0.2-1.8-0.1-1.5-0.1c-0.9-0.2-1.9-0.4-2.8-0.7
				c-2.2-0.6-4.4-1.4-6.6-2.1c-10.6-3.4-21.2-6.8-31.8-10.2C163.2,74.3,156.6,98.3,171.8,103.2L171.8,103.2z"/>
		</g>
	</g>
	<g>
		<g>
			<path class="st2" d="M106.2,107.4c-5.1,22.4-10.2,44.7-15.3,67.1c-2.4,10.5,13.8,15,16.2,4.5c5.1-22.4,10.2-44.7,15.3-67.1
				C124.8,101.3,108.6,96.8,106.2,107.4L106.2,107.4z"/>
		</g>
	</g>
	<g>
		<g>
			<path class="st2" d="M101.3,136.6c-0.1,13.7-0.1,27.4-0.2,41c-0.1,10.8,16.8,10.8,16.8,0c0.1-13.7,0.1-27.4,0.2-41
				C118.2,125.8,101.4,125.7,101.3,136.6L101.3,136.6z"/>
		</g>
	</g>
	<g>
		<g>
			<path class="st3" d="M115.8,182.4c0.4,13.2,0.7,26.4,1.1,39.7c0.1,2.4,3.9,2.4,3.8,0c-0.4-13.2-0.7-26.4-1.1-39.6
				C119.6,180,115.8,180,115.8,182.4L115.8,182.4z"/>
		</g>
	</g>
	<g>
		<g>
			<path class="st3" d="M117.9,223.6c15.9,13,34.1,22.6,53.9,28.2c2.4,0.7,3.4-3,1-3.6c-19.1-5.4-36.9-14.6-52.3-27.2
				C118.7,219.4,116.1,222,117.9,223.6L117.9,223.6z"/>
		</g>
	</g>
	<g>
		<g>
			<path class="st3" d="M178.6,253.1c1.9,0,3.8,0,5.7,0c2.4,0,2.4-3.8,0-3.8c-1.9,0-3.8,0-5.7,0
				C176.2,249.3,176.1,253.1,178.6,253.1L178.6,253.1z"/>
		</g>
	</g>
	<g>
		<g>
			<path class="st3" d="M235.2,177.9c0.4,12.2,0.7,24.4,1.1,36.6c0.1,2.4,3.9,2.4,3.8,0c-0.4-12.2-0.7-24.4-1.1-36.6
				C238.9,175.5,235.1,175.5,235.2,177.9L235.2,177.9z"/>
		</g>
	</g>
	<g>
		<g>
			<path class="st3" d="M237.3,212.6c-12.4,15-28.2,26.7-46.6,33.4c-2.3,0.8-1.3,4.5,1,3.6c18.9-6.9,35.4-18.8,48.2-34.3
				C241.5,213.4,238.9,210.8,237.3,212.6L237.3,212.6z"/>
		</g>
	</g>
	<g>
		<g>
			<path class="st3" d="M233.2,152.4c0.7,9,1.5,18,2.2,27.1c0.2,2.4,4,2.4,3.8,0c-0.7-9-1.5-18-2.2-27.1
				C236.8,149.9,233,149.9,233.2,152.4L233.2,152.4z"/>
		</g>
	</g>
	<g>
		<g>
			<path class="st3" d="M116.3,156.4c-0.2,8.7-0.3,17.4-0.5,26.1c-0.1,2.4,3.7,2.4,3.8,0c0.2-8.7,0.3-17.4,0.5-26.1
				C120.1,153.9,116.3,153.9,116.3,156.4L116.3,156.4z"/>
		</g>
	</g>
	<g>
		<g>
			<path class="st3" d="M239.9,179.7c4.4-3.6,10.8-7.3,14.7-0.8c2.6,4.3,1.8,9.7,1.3,14.5c-0.3,2.4,3.5,2.4,3.8,0
				c0.7-6.8,1.2-15.2-4.9-19.9c-6-4.7-12.7-0.4-17.6,3.6C235.3,178.6,238,181.2,239.9,179.7L239.9,179.7z"/>
		</g>
	</g>
	<g>
		<g>
			<path class="st3" d="M255.4,199.6c-1.1,4.3-2.5,8.5-4.6,12.5c-0.8,1.4-1.7,3.6-3.1,4.6c-3.4,2.4-6.8,0.6-10-1.1
				c-2.1-1.2-4.1,2.1-1.9,3.3c5.1,2.8,11,4.7,15.4-0.3c4.2-4.7,6.4-11.9,7.9-17.9C259.6,198.2,256,197.2,255.4,199.6L255.4,199.6z"
				/>
		</g>
	</g>
	<g>
		<g>
			<path class="st3" d="M118.8,193.2c-3-13-18.6-13-23.7-1.5c-5.2,11.8-1.7,26.4,7.6,35.1c1.8,1.7,4.5-1,2.7-2.7
				c-6-5.6-9.2-13.6-8.9-21.9c0.2-4.2,1.3-9.2,4.2-12.5c5.2-5.9,12.9-2.3,14.4,4.5C115.7,196.6,119.4,195.5,118.8,193.2L118.8,193.2
				z"/>
		</g>
	</g>
	<g>
		<g>
			<path class="st3" d="M107.4,231.5c5.6,2.1,11.9,0.2,15.7-4.4c1.5-1.9-1.2-4.6-2.7-2.7c-3,3.7-7.5,5.1-12,3.4
				C106.1,227,105.1,230.7,107.4,231.5L107.4,231.5z"/>
		</g>
	</g>
	<g>
		<g>
			<path class="st3" d="M109.2,201.7c4.1,1.3,6.3-3.3,4.1-6.5c-2.3-3.5-8.3-5.4-11-1.4c-1.6,2.4-1,5.3-0.6,8
				c0.5,3.3,0.5,7.6,2.1,10.6c0.8,1.5,2,2.7,3.8,2.6c0.7,0,1.5-0.7,2-0.7c1-1.2,1.7-0.6,2.1,1.8c0.3,1.3,0.4,2.6,0.2,4
				c-0.2,2.4,3.6,2.4,3.8,0c0.2-3.4-0.4-10-5-10.3c-2.6-0.2-3,2.6-4.1-1c-0.5-1.7-0.6-3.6-0.9-5.3c-0.3-1.6-0.5-3.3-0.8-5
				c2-3.3,3.7-3.4,5.1-0.4C107.9,197.3,106.9,200.9,109.2,201.7L109.2,201.7z"/>
		</g>
	</g>
	<g>
		<g>
			<path class="st3" d="M245.8,187.2c0.7,2,3.7,1,3.5,3.8c-0.2,2-2.1,3.9-3.4,5.1c-1.1,1.1-2.2,1.6-3,3.1c-1.8,3.3-1,7.1-0.2,10.5
				c0.6,2.4,4.2,1.4,3.6-1c-0.7-2.9-1.1-4.6,0.3-7.2c1.2-2.2,1.8-2.1,3.4-3.5c1.1-1,1.9-2.1,2.4-3.5c1.1-3,1-7.2-0.8-9.9
				c-3.4-5.2-11.8-2.6-9.6,3.8C242.9,190.5,246.6,189.5,245.8,187.2L245.8,187.2z"/>
		</g>
	</g>
	<g>
		<g>
			<path class="st3" d="M163.5,99.7c-8.3,6.8-18.2,11.5-28.8,13.3c-6.9,1.1-17.8-0.5-18.6,9.1c-0.2,3,4.5,3,4.7,0
				c0.4-4.8,10.9-3.9,14.3-4.4c4-0.6,7.9-1.7,11.7-3c7.3-2.7,13.9-6.7,20-11.6C169.2,101.1,165.9,97.8,163.5,99.7L163.5,99.7z"/>
		</g>
	</g>
	<g>
		<g>
			<path class="st3" d="M116,122.2c-0.5,12.2-0.1,24.3,0.1,36.5c0,3.1,4.8,3.1,4.7,0c-0.2-12.2-0.5-24.3-0.1-36.5
				C120.8,119.1,116.1,119.1,116,122.2L116,122.2z"/>
		</g>
	</g>
	<g>
		<g>
			<path class="st3" d="M164.3,104c20.1,8.7,41.1,14.6,62.8,17.5c3,0.4,4.3-4.2,1.3-4.6c-21.2-2.9-41.9-8.6-61.6-17
				C163.9,98.7,161.5,102.8,164.3,104L164.3,104z"/>
		</g>
	</g>
	<g>
		<g>
			<path class="st3" d="M225.4,120.5c4.4,12.3,6,25.5,7.5,38.4c0.3,3,5.1,3,4.7,0c-1.5-13.4-3.2-26.9-7.7-39.7
				C228.9,116.4,224.4,117.6,225.4,120.5L225.4,120.5z"/>
		</g>
	</g>
	<g>
		<g>
			<path class="st3" d="M155.3,68.7c-4.7-5.1-9.3-10.2-14-15.3c-1.1-1.2-3.4-0.6-3.8,1c-1.8,7.5-2.3,15-1.5,22.6
				c0.3,2.8,4.8,2.9,4.5,0c-0.8-7.2-0.4-14.3,1.3-21.4c-1.2,0.3-2.5,0.7-3.8,1c4.7,5.1,9.3,10.2,14,15.4
				C154.1,74,157.3,70.8,155.3,68.7L155.3,68.7z"/>
		</g>
	</g>
	<g>
		<g>
			<path class="st3" d="M139.1,74.7c-10.4-2.1-21.1,2.1-27.2,10.8c-3.9,5.5-5.4,12.2-6.7,18.8c-1.5,7.3-2.9,14.7-4.6,22
				c-3.4,14.8-7.6,29.4-12.4,43.7c-3.9,11.5-11.5,33.3-27.9,26.9c-2.7-1.1-3.9,3.3-1.2,4.3c10.6,4.1,20.7-3.2,26-12
				c7-11.8,10.4-26.6,14.1-39.7c4.1-14.5,7.3-29.2,10.3-44c1.4-7.1,3.1-14.7,8.3-20.1c5.2-5.4,12.8-7.8,20.1-6.4
				C140.7,79.6,141.9,75.3,139.1,74.7L139.1,74.7z"/>
		</g>
	</g>
	<g>
		<g>
			<path class="st3" d="M156.4,70.7c18-14.4,42.6-17.9,63.9-9.1c0-1.5,0-2.9,0-4.3c-5.8,1.8-11.6,3.7-17.4,5.5
				c-2.8,0.9-1.6,5.2,1.2,4.3c5.8-1.8,11.6-3.7,17.4-5.5c2.3-0.7,2-3.5,0-4.3c-22.9-9.4-49.1-5.1-68.3,10.3
				C151,69.4,154.2,72.5,156.4,70.7L156.4,70.7z"/>
		</g>
	</g>
	<g>
		<g>
			<path class="st3" d="M203.6,67.6c10.8-0.3,21.3,3.6,29.6,10.6c9.4,8,13.8,18.5,16.7,30.3c2.6,10.9,5.5,21.2,12.2,30.4
				c5.9,8.2,13.7,14.7,22.8,19.1c2.6,1.2,4.9-2.6,2.3-3.9c-10.5-5-19.1-13.1-24.8-23.2c-6.5-11.5-7.1-24.8-12.1-36.9
				c-7.7-18.5-26.4-31.5-46.6-30.9C200.7,63.2,200.7,67.7,203.6,67.6L203.6,67.6z"/>
		</g>
	</g>
	<g>
		<g>
			<path class="st3" d="M286.4,154.1c-6.4-0.4-12.8-0.7-19.2-1c-1.4-0.1-2.6,1.5-2.2,2.9c6.1,19.6,19.8,36.5,38.5,45.4
				c0.2-1.4,0.4-2.7,0.5-4.1c-10.1,2.8-20.2,5.6-30.3,8.4c-1.4,0.4-2.1,2-1.3,3.3c4.8,8.4,12.5,14.4,22,16.5
				c0.2-1.5,0.4-2.9,0.6-4.4c-13.1,1.6-26.3,3.1-39.4,4.7c-2.8,0.3-2.9,4.8,0,4.5c13.2-1.6,26.3-3.1,39.4-4.7
				c2.3-0.3,3.3-3.8,0.6-4.4c-8.4-1.9-15-7-19.3-14.4c-0.5,1.1-0.9,2.2-1.3,3.3c10.1-2.8,20.2-5.6,30.3-8.4c1.8-0.5,2.3-3.2,0.5-4.1
				c-17.7-8.4-30.6-24.1-36.4-42.7c-0.7,0.9-1.5,1.9-2.2,2.9c6.4,0.4,12.8,0.7,19.2,1C289.3,158.8,289.3,154.3,286.4,154.1
				L286.4,154.1z"/>
		</g>
	</g>
	<g>
		<g>
			<path class="st3" d="M57,199.1c1.2,14.2,10.8,27,25,30.3c-0.2-1.4-0.4-2.7-0.5-4.1c-6.2,3.6-12.3,7.1-18.5,10.7
				c-1.5,0.9-1.4,3.8,0.5,4.1c8.7,1.4,17.4,2.9,26.1,4.3c-0.5-0.5-1.1-1.1-1.6-1.6c1.5,10.1,8,18.5,17.6,22.2
				c1.1,0.4,2.5-0.5,2.8-1.6c1.5-5.8,3-11.5,4.5-17.3c0.7-2.8-3.6-4-4.3-1.2c-1.5,5.8-3,11.5-4.5,17.3c0.9-0.5,1.8-1,2.8-1.6
				c-8.2-3.2-13.2-10.6-14.5-19.1c-0.1-0.7-0.9-1.5-1.6-1.6c-8.7-1.4-17.4-2.9-26.1-4.3c0.2,1.4,0.4,2.7,0.5,4.1
				c6.2-3.6,12.3-7.1,18.4-10.7c1.6-0.9,1.4-3.7-0.5-4.1c-12.1-2.8-20.6-13.7-21.7-26C61.3,196.2,56.8,196.2,57,199.1L57,199.1z"/>
		</g>
	</g>
	<g>
		<g>
			<path class="st3" d="M109.8,246.2c4.8,8.5,9.5,17,14.3,25.4c0.9,1.6,2.9,1.3,3.9,0c4.4-6,6.8-12.6,7.6-19.9
				c-1.3,0.5-2.6,1.1-3.8,1.6c5.9,6.3,13.4,10,22.1,10.9c1.5,0.1,2.5-1.5,2.2-2.9c-1.1-4.6-0.1-8.9,3.1-12.3c2-2.1-1.2-5.3-3.2-3.2
				c-4.4,4.6-5.8,10.5-4.3,16.7c0.7-1,1.4-1.9,2.2-2.9c-7.4-0.7-13.8-4.2-18.9-9.6c-1.5-1.6-3.6-0.2-3.8,1.6
				c-0.7,6.5-3.1,12.3-7,17.6c1.3,0,2.6,0,3.9,0c-4.8-8.5-9.5-16.9-14.3-25.4C112.3,241.4,108.4,243.6,109.8,246.2L109.8,246.2z"/>
		</g>
	</g>
	<g>
		<g>
			<path class="st3" d="M252.9,227.9c0.2,10.9-3.4,21.3-10.7,29.4c1.2,0.1,2.4,0.3,3.5,0.5c-3-4.9-8.6-15.8-16.1-10.9
				c-6.7,4.4-2.4,13.2,1.2,17.9c0.9-1.1,1.7-2.2,2.5-3.3c-5.7-1.3-9.9-4.9-12.4-10.1c-0.9-1.7-3.7-1.3-4.1,0.5
				c-1.2,5.2-3.9,9.6-8.4,12.6c-2.4,1.6-0.1,5.5,2.3,3.9c5.5-3.6,9-8.8,10.5-15.2c-1.4,0.2-2.7,0.4-4.1,0.5
				c3.1,6.2,8.4,10.6,15.1,12.2c1.7,0.4,3.8-1.6,2.5-3.3c-2.3-3-6.6-8.4-2.2-11.1c3.1-1.9,4.5,0.9,6.2,3.4c1.1,1.7,2.1,3.5,3.2,5.2
				c0.7,1.2,2.5,1.6,3.5,0.5c8.1-9,12.2-20.5,12-32.6C257.3,225,252.8,225,252.9,227.9L252.9,227.9z"/>
		</g>
	</g>
	<g>
		<g>
			<path class="st3" d="M211.1,267c3-8.5,1.2-17.7-4.6-24.6c-1.9-2.2-5,1-3.2,3.2c4.8,5.7,5.9,13.3,3.4,20.3
				C205.8,268.6,210.2,269.8,211.1,267L211.1,267z"/>
		</g>
	</g>
	<g>
		<g>
			<path class="st1" d="M164.6,160.7c2.6,10.3-3.5,22.2-14.9,22.6c-14,0.6-14.1,22.4,0,21.8c25.8-1,42-25.8,35.9-50.2
				C182.2,141.3,161.2,147.1,164.6,160.7L164.6,160.7z"/>
		</g>
	</g>
	<g>
		<g>
			<path class="st1" d="M182.8,136.4c-11.4,9.9-16,27.3-11.2,41.6c5.1,15.2,19.8,26.1,35.9,25.7c14-0.3,14.1-22.1,0-21.8
				c-16.3,0.4-20.6-20.3-9.3-30.1c4.4-3.9,4-11.4,0-15.4C193.8,131.9,187.2,132.5,182.8,136.4L182.8,136.4z"/>
		</g>
	</g>
	<ellipse id="_x2B_Left_Pupil_1_" class="st3" cx="204.8" cy="164.2" rx="3.8" ry="5.6"/>
	<g>
		<g>
			<path class="st3" d="M191.1,159.8c10.2-10.6,26-7.3,32.4,5.6c1.2,2.5,4.9,0.3,3.7-2.1c-7.5-15.4-27-18.9-39.1-6.5
				C186.1,158.7,189.1,161.7,191.1,159.8L191.1,159.8z"/>
		</g>
	</g>
	<g>
		<g>
			<path class="st3" d="M206.2,185.1c8.3,1,16.1-0.3,19.4-8.9c1-2.6-3.1-3.7-4.1-1.1c-2.6,6.7-9.3,6.5-15.3,5.8
				C203.5,180.5,203.5,184.7,206.2,185.1L206.2,185.1z"/>
		</g>
	</g>
	<g>
		<g>
			<path class="st3" d="M226.1,166.4c4.3-0.6,7.8-3.1,10.2-6.5c1.3-1.9-1.2-3.9-2.9-2.9c-3.4,1.8-7.2,1.8-10.5-0.1
				c-2.4-1.3-4.6,2.4-2.1,3.7c4.7,2.6,10.1,2.6,14.8,0.1c-1-1-1.9-1.9-2.9-2.9c-1.8,2.6-4.4,4.1-7.6,4.6
				C222.3,162.6,223.4,166.7,226.1,166.4L226.1,166.4z"/>
		</g>
	</g>
	<g>
		<g>
			<path class="st3" d="M233.4,159.2c2.1-2,4.2-4.1,6.3-6.1c-0.3-0.2-0.6-0.5-0.9-0.7c-1.6,2.6-3.1,5.2-4.7,7.8
				c-0.4,0.6,0.6,1.2,1,0.6c1.6-2.6,3.1-5.2,4.7-7.8c0.4-0.6-0.4-1.2-0.9-0.7c-2.1,2-4.2,4.1-6.3,6.1
				C232,158.9,232.9,159.8,233.4,159.2L233.4,159.2z"/>
		</g>
	</g>
	<g>
		<g>
			<path class="st3" d="M217.4,155.4c4.2,0.7,8.3-0.6,11.1-3.8c-0.7-0.4-1.3-0.8-2-1.1c-1,2.6-2.3,5-3.9,7.2
				c0.7,0.1,1.4,0.2,2.2,0.3c-0.1-0.4-0.2-0.7-0.5-1c-0.1-0.1-0.2-0.3-0.4-0.4c-0.4-0.4-0.4-0.3,0,0.1c1.5,0.4,2.1-1.9,0.6-2.3
				c-1.3-0.3-2.8-0.3-3.4,1.1c-0.2,0.5-0.2,1,0,1.5c0.2,0.6,1.2,1,1.3,1.6c0.2,1.1,1.6,1,2.2,0.3c1.8-2.4,3.1-5,4.2-7.8
				c0.4-1.1-1.2-2-2-1.1c-2.3,2.5-5.5,3.8-8.9,3.2C216.5,152.8,215.9,155.1,217.4,155.4L217.4,155.4z"/>
		</g>
	</g>
	<g>
		<g>
			<path class="st3" d="M222.8,178.4c1,0.7,1.8,1.7,2.1,2.9c0.5-0.3,0.9-0.5,1.4-0.8c-0.9-1-2.1-1.8-3.4-2c-1-0.2-1.5,1.4-0.4,1.6
				c1.1,0.2,1.9,0.8,2.6,1.6c0.5,0.6,1.6-0.1,1.4-0.8c-0.5-1.6-1.5-2.9-2.9-3.9C222.7,176.4,221.9,177.8,222.8,178.4L222.8,178.4z"
				/>
		</g>
	</g>
	<g>
		<g>
			<path class="st3" d="M218.8,182.7c0.9,0.7,1.4,1.7,1.6,2.8c0.5-0.3,0.9-0.5,1.4-0.8c-0.9-1-1.9-1.7-3.1-2.2
				c-0.4-0.2-0.9,0.2-1,0.6c-0.1,0.5,0.2,0.9,0.6,1c0.9,0.4,1.7,1,2.4,1.8c0.6,0.7,1.5-0.1,1.4-0.8c-0.2-1.4-0.9-2.7-2-3.5
				C219.2,180.9,218,182,218.8,182.7L218.8,182.7z"/>
		</g>
	</g>
	<g>
		<g>
			<path class="st3" d="M206.7,184.9c-0.4,1-0.6,2.1-0.4,3.2c0.1,0.8,1.1,1.2,1.5,0.4c0.7-1.2,1.6-2.2,2.7-3c0.9-0.6,0-2.1-0.8-1.4
				c-1.4,1-2.5,2.2-3.3,3.6c0.5,0.1,1,0.3,1.5,0.4c-0.1-1,0-1.9,0.4-2.8c0.2-0.4-0.2-0.9-0.6-1C207.3,184.2,206.9,184.5,206.7,184.9
				L206.7,184.9z"/>
		</g>
	</g>
	<ellipse id="_x2B_Right_Pupil" class="st3" cx="148.9" cy="164.2" rx="3.8" ry="5.6"/>
	<g>
		<g>
			<path class="st3" d="M164.8,157.4c-11.9-12.5-31-8.8-38.3,6.5c-1.2,2.4,2.5,4.6,3.7,2.1c6.1-12.8,21.6-16.3,31.7-5.6
				C163.7,162.4,166.6,159.4,164.8,157.4L164.8,157.4z"/>
		</g>
	</g>
	<g>
		<g>
			<path class="st3" d="M147,181.5c-6,0.8-12.5,0.9-15-5.8c-0.9-2.5-5-1.4-4.1,1.1c3.2,8.5,10.8,9.9,19.1,8.9
				C149.6,185.4,149.6,181.2,147,181.5L147,181.5z"/>
		</g>
	</g>
	<g>
		<g>
			<path class="st3" d="M128.6,162.9c-3.1-0.4-5.7-2-7.5-4.6c-1,1-1.9,1.9-2.9,2.9c4.6,2.5,9.9,2.5,14.5-0.1c2.4-1.3,0.2-5-2.1-3.6
				c-3.3,1.8-7,1.9-10.3,0.1c-1.8-0.9-4.1,1.1-2.9,2.9c2.3,3.5,5.8,6,10,6.5C130.1,167.4,131.2,163.3,128.6,162.9L128.6,162.9z"/>
		</g>
	</g>
	<g>
		<g>
			<path class="st3" d="M120.6,158.1c-2.2-1.6-4.4-3.1-6.6-4.7c-0.5-0.4-1.1,0.3-0.8,0.8c1.1,2.1,2.5,4.1,4.2,5.7
				c0.5,0.4,1.3-0.1,0.9-0.7c-0.7-1.1-1.3-2.1-2-3.2c-0.4-0.6-1.4-0.1-1,0.6c0.7,1.1,1.3,2.1,2,3.2c0.3-0.2,0.6-0.5,0.9-0.7
				c-1.7-1.6-3-3.4-4-5.5c-0.3,0.3-0.5,0.5-0.8,0.8c2.2,1.6,4.4,3.1,6.6,4.7c0.3,0.2,0.7,0.1,0.8-0.2
				C121,158.6,120.9,158.3,120.6,158.1L120.6,158.1z"/>
		</g>
	</g>
	<g>
		<g>
			<path class="st3" d="M129.3,159.7c-2-2-3.3-4.4-4.1-7.2c-0.7,0.4-1.3,0.8-2,1.1c2.8,2.8,6.5,4.3,10.5,4.1
				c-0.1-0.8-0.2-1.6-0.3-2.3c-2.1,0.8-4.1,1-6.2,0.4c-1.5-0.4-2.1,1.9-0.6,2.3c2.5,0.7,5.1,0.6,7.5-0.4c1.1-0.5,1.1-2.4-0.3-2.3
				c-3.4,0.2-6.4-0.9-8.8-3.4c-0.8-0.9-2.3,0-2,1.1c0.8,3.1,2.4,5.9,4.7,8.2C128.7,162.5,130.4,160.8,129.3,159.7L129.3,159.7z"/>
		</g>
	</g>
	<g>
		<g>
			<path class="st3" d="M131,179.2c-1.8,0.8-3,2.4-3.4,4.3c-0.2,0.7,0.8,1.5,1.4,0.8c1-1.3,2.4-2,4.1-2.1c1.1,0,1.1-1.7,0-1.7
				c-2.1,0-3.9,0.9-5.2,2.5c0.5,0.3,0.9,0.5,1.4,0.8c0.4-1.5,1.3-2.7,2.7-3.3C132.8,180.2,132,178.8,131,179.2L131,179.2z"/>
		</g>
	</g>
	<g>
		<g>
			<path class="st3" d="M134.5,182.6c-0.9,1.5-1.6,3.1-0.8,4.8c0.3,0.6,1.4,0.5,1.5-0.2c0.2-1.2,0.9-2.2,2.1-2.6
				c1-0.4,0.6-2-0.4-1.6c-1.7,0.6-2.9,2-3.2,3.8c0.5-0.1,1-0.1,1.5-0.2c-0.5-1.1,0.2-2.2,0.8-3.1C136.5,182.5,135,181.7,134.5,182.6
				L134.5,182.6z"/>
		</g>
	</g>
	<g>
		<g>
			<path class="st3" d="M143.9,185.9c1.1,0.3,1.9,1.1,2.2,2.2c0.2,0.7,1.4,0.9,1.6,0c0.3-1.4,0.1-2.7-0.4-4c-0.4-1-1.9-0.1-1.4,0.8
				c0.4,0.9,0.5,1.8,0.3,2.7c0.5,0,1.1,0,1.6,0c-0.6-1.6-1.7-2.8-3.4-3.3C143.4,184,142.9,185.6,143.9,185.9L143.9,185.9z"/>
		</g>
	</g>
	<g id="_x2B_Mouth">
		<g id="Surprised_1_" class="st4">
			<g class="st5">
				<path class="st3" d="M180,245.5c-3.6-0.1-6.6-1.3-8.7-3.8c-5.2-6.1-3.8-17.4-3.7-17.5l24.6-0.6c0.1,0.2,1.7,12.4-3.7,18.5
					c-2,2.3-4.8,3.5-8.2,3.5L180,245.5z"/>
				<path class="st3" d="M192.2,223.6c0,0,2.9,21.8-11.9,21.8c-0.1,0-0.2,0-0.3,0c-15.1-0.3-12.3-21.2-12.3-21.2L192.2,223.6
					 M192.2,223.4L192.2,223.4l-24.5,0.6c-0.1,0-0.1,0.1-0.1,0.1c0,0.1-1.5,11.5,3.8,17.6c2.1,2.5,5.1,3.8,8.7,3.8
					c0.1,0,0.2,0,0.3,0c3.5,0,6.2-1.2,8.3-3.5c5.4-6.1,3.8-18.3,3.8-18.5C192.3,223.5,192.3,223.4,192.2,223.4L192.2,223.4z"/>
			</g>
			<g class="st5">
				<path class="st0" d="M168.4,224.2C168.3,224.2,168.3,224.2,168.4,224.2c-0.1-0.1-0.1-0.1-0.1-0.1c0-0.1,3-6.8,11.5-7.3
					c0.5,0.1,11.7,2.3,11.8,6.8c0,0,0,0.1-0.1,0.1L168.4,224.2z"/>
				<path class="st3" d="M179.8,216.9c0,0,11.6,2.3,11.7,6.7c-6.1,0.1-11.7,0.3-11.7,0.3l-11.5,0.3
					C168.4,224.1,171.3,217.4,179.8,216.9 M179.8,216.7C179.8,216.7,179.8,216.7,179.8,216.7c-8.5,0.5-11.5,7.3-11.6,7.4
					c0,0.1,0,0.1,0,0.1s0.1,0.1,0.1,0.1l0,0l11.5-0.3l11.7-0.3c0.1,0,0.1-0.1,0.1-0.1C191.6,219.1,180.3,216.8,179.8,216.7
					C179.8,216.7,179.8,216.7,179.8,216.7L179.8,216.7z"/>
			</g>
			<g class="st5">
				<path class="st3" d="M169.1,225.5C169.1,225.5,169.1,225.5,169.1,225.5C169.1,225.4,169,225.4,169.1,225.5l-0.1-2.6
					c0,0,0-0.1,0.1-0.1l21.7-0.5c0,0,0,0,0.1,0c0,0,0,0,0,0.1l0.1,2.5c0,0,0,0.1-0.1,0.1L169.1,225.5z"/>
				<path class="st3" d="M190.8,222.4l0.1,2.5l-21.7,0.5l-0.1-2.5L190.8,222.4 M190.8,222.2L190.8,222.2l-21.7,0.5
					c-0.1,0-0.1,0.1-0.1,0.1l0.1,2.5c0,0,0,0.1,0.1,0.1c0,0,0.1,0,0.1,0l0,0l21.7-0.5c0.1,0,0.1-0.1,0.1-0.1l-0.1-2.5
					c0,0,0-0.1-0.1-0.1C190.9,222.2,190.8,222.2,190.8,222.2L190.8,222.2z"/>
			</g>
			<g class="st5">
				<path class="st6" d="M179.2,246.1c-0.6,0-1.2,0-1.7-0.1c-0.8-1.1-1.2-2.3-1.3-3.5l0-0.4c0-1.8-0.1-3.3,0.9-4.5
					c1-1.3,3.1-1.9,6.6-2c0.4,0,0.7,0,1.1,0c6.3,0,6.3,1.5,6.4,3.6c0,0.6,0,1.2,0.2,1.8l-4.9,4.1c-0.1,0-3.3,0.9-6.6,1
					C179.5,246.1,179.3,246.1,179.2,246.1z"/>
				<path class="st3" d="M184.7,235.7c7.9,0,5.8,2.4,6.4,5.3l-4.9,4c0,0-3.2,0.9-6.6,1c-0.2,0-0.3,0-0.5,0c-0.7,0-1.2,0-1.7-0.1
					c-0.7-1-1.2-2.2-1.2-3.4c-0.1-3.6-0.5-6.6,7.4-6.8C184,235.7,184.4,235.7,184.7,235.7 M184.7,235.5c-0.3,0-0.7,0-1.1,0
					c-3.5,0.1-5.6,0.7-6.7,2c-0.9,1.2-0.9,2.8-0.9,4.5l0,0.4c0,1.2,0.4,2.5,1.2,3.5c0,0,0.1,0.1,0.1,0.1c0.5,0.1,1.1,0.1,1.7,0.1
					c0.2,0,0.3,0,0.5,0c3.4-0.1,6.6-1,6.6-1c0,0,0,0,0.1,0l4.9-4c0,0,0.1-0.1,0.1-0.1c-0.1-0.6-0.1-1.2-0.2-1.8
					C191.1,236.9,190.8,235.5,184.7,235.5L184.7,235.5z"/>
			</g>
			<g class="st5">
				<path class="st3" d="M180,247.4c-7.6,0-14-7-14.2-15.7c-0.2-8.8,6-16.1,13.8-16.3h0.3c7.6,0,14,7,14.2,15.7
					c0.2,8.8-6,16.1-13.8,16.3H180z M179.7,218.3c-6.4,0.1-11.6,6.2-11.4,13.4c0.1,7.1,5.4,12.9,11.7,12.9h0.2
					c6.4-0.1,11.6-6.2,11.4-13.4c-0.1-7.1-5.4-12.9-11.7-12.9H179.7z"/>
				<path class="st3" d="M180,215.5c7.6,0,13.9,6.9,14.1,15.6c0.2,8.8-6,16.1-13.8,16.2c-0.1,0-0.2,0-0.3,0
					c-7.6,0-13.9-6.9-14.1-15.6c-0.2-8.8,6-16.1,13.8-16.2C179.8,215.5,179.9,215.5,180,215.5 M180,244.6c0.1,0,0.2,0,0.2,0
					c6.5-0.1,11.6-6.2,11.5-13.5c-0.1-7.2-5.4-12.9-11.8-12.9c-0.1,0-0.2,0-0.2,0c-6.5,0.1-11.6,6.2-11.5,13.5
					C168.4,238.9,173.7,244.6,180,244.6 M180,215.4L180,215.4c-0.1,0-0.2,0-0.3,0c-7.8,0.2-14.1,7.5-13.9,16.4
					c0.2,8.7,6.6,15.7,14.3,15.7c0.1,0,0.2,0,0.3,0c7.9-0.2,14.1-7.5,13.9-16.4C194.1,222.4,187.6,215.4,180,215.4L180,215.4z
					 M180,244.5c-6.3,0-11.5-5.7-11.6-12.8c-0.1-7.2,4.9-13.2,11.3-13.3c0.1,0,0.2,0,0.2,0c6.3,0,11.5,5.7,11.6,12.8
					c0.1,7.2-4.9,13.2-11.3,13.3C180.2,244.5,180.1,244.5,180,244.5L180,244.5z"/>
			</g>
		</g>
		<g id="Smile_1_" class="st4">
			<g class="st5">
				<path class="st0" d="M179.9,235.5c-13.4,0-20.4-5.1-24-9.5c-3.9-4.7-4.6-9.4-4.6-9.5c0,0,0,0,0-0.1c0,0,0,0,0.1,0l29,1.3
					l28.6-2.9c0,0,0,0,0.1,0c0,0,0,0,0,0.1c0,0.2-1.2,20-27.9,20.6C180.8,235.5,180.4,235.5,179.9,235.5z"/>
				<path class="st3" d="M209.1,214.8c0,0-0.9,19.9-27.9,20.5c-0.4,0-0.9,0-1.3,0c-25.8,0-28.5-18.9-28.5-18.9l29,1.3L209.1,214.8
					 M209.1,214.7C209.1,214.7,209.1,214.7,209.1,214.7l-28.7,2.9l-29-1.3c0,0,0,0,0,0c0,0-0.1,0-0.1,0.1s0,0.1,0,0.1
					c0,0.1,0.7,4.8,4.6,9.5c3.6,4.3,10.7,9.5,24,9.5c0.4,0,0.8,0,1.3,0c7.7-0.2,18.2-2.2,24.2-10.6c3.6-5,3.9-10.1,3.9-10.1
					C209.2,214.8,209.2,214.8,209.1,214.7C209.1,214.7,209.1,214.7,209.1,214.7L209.1,214.7z M209.1,215L209.1,215L209.1,215
					L209.1,215z"/>
			</g>
			<g class="st5">
				<path class="st3" d="M154.9,226.5C154.8,226.5,154.8,226.5,154.9,226.5C154.8,226.5,154.8,226.5,154.9,226.5l-0.1-2.6
					c0,0,0-0.1,0.1-0.1l51.7-1.2c0,0,0,0,0.1,0c0,0,0,0,0,0.1l0.1,2.5c0,0,0,0.1-0.1,0.1C206.6,225.3,154.9,226.5,154.9,226.5z"/>
				<path class="st3" d="M206.5,222.7l0.1,2.5l-51.7,1.2l-0.1-2.5L206.5,222.7 M206.5,222.6L206.5,222.6l-51.7,1.2
					c-0.1,0-0.1,0.1-0.1,0.1l0.1,2.5c0,0,0,0.1,0.1,0.1c0,0,0.1,0,0.1,0l0,0l51.7-1.2c0.1,0,0.1-0.1,0.1-0.1l-0.1-2.5
					C206.7,222.7,206.6,222.6,206.5,222.6C206.6,222.6,206.6,222.6,206.5,222.6L206.5,222.6z"/>
			</g>
			<g class="st5">
				<path class="st3" d="M179.8,236.8c-14.4,0-21.7-5.4-25.2-9.9c-4.1-5.2-4.5-10.6-4.5-10.8l-0.1-1.6c0,0,0,0,0-0.1c0,0,0,0,0.1,0
					l1.4,0.2c0.1,0,13.7,1.7,27.8,1.7c1.3,0,2.5,0,3.8,0c15.2-0.4,25.2-3.6,25.6-3.8l1.4-0.5c0,0,0,0,0,0c0,0,0,0,0,0c0,0,0,0,0,0.1
					l0.1,1.7c0,0.3,0.2,7.1-4.8,13.3c-5,6.1-13.1,9.4-24.3,9.6C180.8,236.8,180.3,236.8,179.8,236.8z M152.9,217.6
					c1.1,5,5.9,16.3,26.9,16.3c0.4,0,0.9,0,1.4,0c10.4-0.2,18-3.2,22.5-8.7c2.9-3.6,3.8-7.4,4.1-9.5c-3.4,0.9-12.3,3.1-24.6,3.4
					c-1.3,0-2.6,0-3.8,0C167.9,219.2,157.1,218.1,152.9,217.6z"/>
				<path class="st3" d="M210.2,212.1l0.1,1.7c0,0.3,0.2,7.1-4.8,13.2c-5,6.1-13.1,9.4-24.2,9.6c-0.5,0-0.9,0-1.4,0
					c-14.3,0-21.6-5.3-25.2-9.9c-4.1-5.2-4.5-10.5-4.5-10.8l-0.1-1.6l1.4,0.2c0.1,0,13.6,1.7,27.8,1.7c1.3,0,2.5,0,3.8,0
					c15.5-0.4,25.6-3.7,25.7-3.8L210.2,212.1 M207.8,215.7c-3.5,1-12.3,3.1-24.7,3.4c-1.3,0-2.6,0-3.8,0c-11.6,0-22.6-1.1-26.5-1.6
					c1,4.5,5.6,16.5,27,16.5c0.4,0,0.9,0,1.4,0c10.4-0.2,18-3.2,22.5-8.7C206.6,221.7,207.5,217.9,207.8,215.7 M210.2,212
					C210.2,212,210.2,212,210.2,212l-1.5,0.5c-0.1,0-10.2,3.4-25.6,3.8c-1.2,0-2.5,0-3.8,0c-14.3,0-27.7-1.7-27.8-1.7l-1.4-0.2
					c0,0,0,0,0,0c0,0-0.1,0-0.1,0s-0.1,0.1-0.1,0.1l0.1,1.6c0,0.2,0.4,5.6,4.5,10.8c3.6,4.5,10.9,9.9,25.3,9.9c0.5,0,0.9,0,1.4,0
					c11.2-0.3,19.4-3.5,24.3-9.7c5-6.2,4.8-13.1,4.8-13.4l-0.1-1.7C210.3,212.1,210.3,212,210.2,212C210.2,212,210.2,212,210.2,212
					L210.2,212z M179.3,219.3c1.3,0,2.6,0,3.8,0c12.2-0.3,21-2.4,24.5-3.3c-0.3,2.1-1.2,5.8-4,9.3c-4.5,5.5-12.1,8.4-22.4,8.7
					c-0.5,0-0.9,0-1.4,0c-20.8,0-25.7-11.1-26.8-16.2C157.3,218.2,168,219.3,179.3,219.3L179.3,219.3z"/>
			</g>
		</g>
		<g id="W-Oo_3_" class="st4">
			<g id="_x33__4_" class="st5">
				<path class="st3" d="M179.9,235.4c-4.7,0-8.6-4.3-8.8-9.6c-0.1-5.4,3.7-9.9,8.5-10h0.2c4.7,0,8.6,4.3,8.8,9.6
					c0.1,5.4-3.7,9.9-8.5,10L179.9,235.4z"/>
				<path class="st3" d="M179.9,215.9c4.7,0,8.6,4.2,8.7,9.5c0.1,5.3-3.7,9.8-8.5,9.9c-0.1,0-0.1,0-0.2,0c-4.7,0-8.6-4.2-8.7-9.5
					c-0.1-5.3,3.7-9.8,8.5-9.9C179.7,215.9,179.8,215.9,179.9,215.9 M179.9,215.8c-0.1,0-0.1,0-0.2,0c-4.9,0.1-8.7,4.6-8.6,10.1
					c0.1,5.3,4.1,9.6,8.8,9.6c0.1,0,0.1,0,0.2,0c4.9-0.1,8.7-4.6,8.6-10.1C188.6,220.1,184.6,215.8,179.9,215.8L179.9,215.8z"/>
			</g>
			<g id="_x32__11_" class="st5">
				<path class="st3" d="M179.9,233c-3.6,0-6.6-3.2-6.6-7.2c-0.1-4.1,2.8-7.5,6.5-7.6h0.1c3.6,0,6.6,3.2,6.6,7.2
					c0.1,4.1-2.8,7.5-6.5,7.6H179.9z"/>
				<path class="st3" d="M179.9,218.3c3.6,0,6.5,3.2,6.6,7.2c0.1,4-2.8,7.4-6.4,7.5c-0.1,0-0.1,0-0.1,0c-3.6,0-6.5-3.2-6.6-7.2
					c-0.1-4,2.8-7.4,6.4-7.5C179.8,218.3,179.9,218.3,179.9,218.3 M179.9,218.1h-0.1c-3.7,0.1-6.6,3.5-6.5,7.6
					c0.1,4,3.1,7.3,6.7,7.3h0.1c3.7-0.1,6.6-3.5,6.5-7.6C186.6,221.4,183.5,218.1,179.9,218.1L179.9,218.1z"/>
			</g>
			<g id="_x31__11_" class="st5">
				<path class="st3" d="M179.9,230.8c-2.5,0-4.6-2.3-4.6-5.1c-0.1-2.9,2-5.2,4.5-5.3l0,0c2.6,0,4.7,2.3,4.7,5.1
					c0.1,2.9-2,5.2-4.5,5.3H179.9z"/>
				<path class="st3" d="M179.9,220.5c2.5,0,4.5,2.2,4.6,5c0.1,2.8-1.9,5.1-4.5,5.2c0,0-0.1,0-0.1,0c-2.5,0-4.5-2.2-4.6-5
					c-0.1-2.8,1.9-5.1,4.5-5.2C179.8,220.5,179.8,220.5,179.9,220.5 M179.9,220.4h-0.1c-2.6,0.1-4.7,2.5-4.6,5.4
					c0.1,2.8,2.2,5.1,4.7,5.1h0.1c2.6-0.1,4.7-2.5,4.6-5.4C184.5,222.7,182.4,220.4,179.9,220.4L179.9,220.4z"/>
			</g>
		</g>
		<g id="Uh_3_" class="st4">
			<g id="_x32__10_" class="st5">
				<g>
					<path class="st0" d="M152.5,224.6C152.4,224.6,152.4,224.6,152.5,224.6l-2.2-10.2c0,0,0-0.1,0-0.1c0,0,0,0,0.1,0l11.1,1.6
						l15.1,0.9l11.8-0.3l9.9-1.5l9.9-2.1c0,0,0,0,0.1,0c0,0,0,0,0,0.1l-0.7,6.7l-1.6,3.6C205.8,223.3,153,224.6,152.5,224.6
						L152.5,224.6z"/>
					<path class="st3" d="M208.1,213l-0.7,6.7l-1.6,3.5c0,0-52.8,1.2-53.3,1.2l-2.1-10.1l11,1.6l15.1,0.9l11.8-0.3l9.9-1.5
						L208.1,213 M208.1,212.9C208.1,212.9,208.1,212.9,208.1,212.9l-9.9,2.1l-9.9,1.5l-11.8,0.3l-15.1-0.9l-11-1.6c0,0,0,0,0,0
						c0,0-0.1,0-0.1,0.1c0,0-0.1,0.1,0,0.1l2.1,10.1c0,0.1,0.1,0.1,0.1,0.1l0,0l53.4-1.2c0.1,0,0.1,0,0.1-0.1l1.6-3.5c0,0,0,0,0-0.1
						l0.7-6.7C208.2,213,208.2,213,208.1,212.9C208.2,212.9,208.1,212.9,208.1,212.9L208.1,212.9z M208.1,213.2L208.1,213.2
						L208.1,213.2L208.1,213.2z"/>
				</g>
				<g>
					<path class="st3" d="M173.3,240c-1.6,0-10.9-4.3-11.3-4.5l-5.6-5.3l-2.9-5.7c0,0,0-0.1,0-0.1s0,0,0.1,0l52.1-1.2c0,0,0,0,0.1,0
						c0,0,0,0,0,0.1l-0.5,2.9l-3.2,4.9l-5.4,4.6l-6,2.7l-6.6,1.4c0,0,0,0,0,0c-0.1,0-1.4,0-2.9,0c-4.3,0-7,0.1-7.5,0.2
						C173.4,240,173.4,240,173.3,240L173.3,240z"/>
					<path class="st3" d="M205.6,223.3L205.6,223.3 M205.6,223.3l-0.5,2.9l-3.2,4.8l-5.4,4.6l-6,2.7l-6.6,1.4c0,0-1.3,0-2.9,0
						c-2.8,0-6.8,0-7.5,0.3c0,0-0.1,0-0.1,0c-1.6,0-11.2-4.5-11.2-4.5l-5.6-5.3l-2.9-5.6L205.6,223.3 M205.6,223.1L205.6,223.1
						L205.6,223.1C205.6,223.1,205.6,223.1,205.6,223.1C205.6,223.1,205.6,223.1,205.6,223.1C205.6,223.1,205.6,223.1,205.6,223.1
						C205.6,223.1,205.6,223.1,205.6,223.1C205.6,223.1,205.6,223.1,205.6,223.1C205.6,223.1,205.6,223.1,205.6,223.1l-52.1,1.2
						c-0.1,0-0.1,0-0.1,0.1c0,0,0,0.1,0,0.1l2.9,5.6c0,0,0,0,0,0l5.6,5.3c0,0,0,0,0,0c0.4,0.2,9.6,4.5,11.3,4.5c0.1,0,0.1,0,0.2,0
						c0.5-0.2,3.2-0.2,7.5-0.2c1.6,0,2.9,0,2.9,0l6.6-1.4l6-2.7c0,0,0,0,0,0l5.4-4.6c0,0,0,0,0,0l3.2-4.8c0,0,0,0,0-0.1l0.5-2.9
						c0,0,0,0,0-0.1C205.7,223.2,205.6,223.1,205.6,223.1L205.6,223.1L205.6,223.1L205.6,223.1z M205.6,223.4L205.6,223.4
						L205.6,223.4L205.6,223.4z"/>
				</g>
				<g>
					<path class="st3" d="M152.5,225.9C152.5,225.9,152.5,225.9,152.5,225.9C152.4,225.8,152.4,225.8,152.5,225.9l-0.1-2.6
						c0,0,0-0.1,0.1-0.1l53.1-1.2c0,0,0,0,0.1,0c0,0,0,0,0,0.1l0.1,2.5c0,0,0,0.1-0.1,0.1C205.6,224.6,152.5,225.9,152.5,225.9z"/>
					<path class="st3" d="M205.5,222l0.1,2.5l-53.1,1.2l-0.1-2.5L205.5,222 M205.5,221.9L205.5,221.9l-53.1,1.2
						c-0.1,0-0.1,0.1-0.1,0.1l0.1,2.5c0,0,0,0.1,0.1,0.1c0,0,0.1,0,0.1,0l0,0l53.1-1.2c0.1,0,0.1-0.1,0.1-0.1l-0.1-2.5
						c0,0,0-0.1-0.1-0.1C205.6,221.9,205.6,221.9,205.5,221.9L205.5,221.9z"/>
				</g>
				<g>
					<path class="st6" d="M177.4,241.1c-1,0-2.3,0-2.8-0.1c-0.7-0.7-0.7-0.8-0.6-1.1c0.1-0.2,0.1-0.4,0.1-0.9l0-0.5
						c-0.1-1.9-0.1-3.6,1.1-4.9c1.4-1.4,4.3-2.2,9.1-2.3c0.3,0,0.6,0,0.9,0c7.8,0,8.5,2.5,9.3,5.7l0.1,0.2l-6.6,2.6
						c-0.1,0-4.5,1.2-9.1,1.3C178.5,241.1,178,241.1,177.4,241.1z"/>
					<path class="st3" d="M185.3,231.3c8,0,8.4,2.6,9.3,5.9l-6.6,2.5c0,0-4.4,1.2-9.1,1.3c-0.4,0-0.9,0-1.4,0c-1.1,0-2.3,0-2.8-0.1
						c-1-1.1-0.4-0.6-0.4-2c-0.1-4.1-0.6-7.4,10.1-7.6C184.6,231.3,185,231.3,185.3,231.3 M185.3,231.1c-0.3,0-0.6,0-0.9,0
						c-4.8,0.1-7.7,0.9-9.1,2.3c-1.3,1.3-1.2,3.1-1.2,5l0,0.5c0,0.5-0.1,0.7-0.1,0.9c-0.1,0.4-0.1,0.5,0.6,1.2c0,0,0.1,0,0.1,0.1
						c0.6,0.1,1.8,0.1,2.9,0.1c0.5,0,1.1,0,1.5,0c4.6-0.1,9.1-1.3,9.1-1.3l6.6-2.5c0.1,0,0.1-0.1,0.1-0.2l-0.1-0.2
						C193.8,233.7,193.2,231.1,185.3,231.1L185.3,231.1z"/>
				</g>
				<g>
					<path class="st3" d="M179.3,241.9c-28.5,0-30.2-26.2-30.2-26.4l-0.1-1.6c0,0,0,0,0-0.1c0,0,0,0,0.1,0l1.4,0.2
						c0.1,0,13.5,1.7,27.8,1.7c1.3,0,2.5,0,3.8,0c15.2-0.4,25.2-3.6,25.6-3.8l1.4-0.5c0,0,0,0,0,0c0,0,0,0,0,0c0,0,0,0,0,0.1
						l0.1,1.7c0,0.4,0.3,10.8-6.4,19c-5,6.2-12.6,9.5-22.5,9.7C180.1,241.9,179.7,241.9,179.3,241.9z M151.8,216.9
						c0.8,5.3,5.2,22.1,27.5,22.1c0.4,0,0.7,0,1.1,0c9.2-0.2,16.2-3.2,20.8-8.8c4.3-5.3,5.4-11.7,5.6-15.1
						c-3.4,0.9-12.3,3.1-24.6,3.4c-1.3,0-2.6,0-3.8,0C166.9,218.5,156,217.4,151.8,216.9z"/>
					<path class="st3" d="M209.2,211.4l0.1,1.7c0,0.4,0.3,10.7-6.3,18.9c-5,6.2-12.6,9.4-22.5,9.7c-0.4,0-0.7,0-1.1,0
						c-28.4,0-30.1-26.1-30.1-26.4l-0.1-1.6l1.4,0.2c0.1,0,13.6,1.7,27.8,1.7c1.3,0,2.5,0,3.8,0c15.5-0.4,25.6-3.7,25.7-3.8
						L209.2,211.4 M206.9,215c-3.4,1-12.3,3.1-24.7,3.4c-1.3,0-2.6,0-3.8,0c-11.6,0-22.7-1.1-26.6-1.6c0.8,5.4,5.2,22.2,27.6,22.2
						c0.4,0,0.7,0,1.1,0c9.2-0.2,16.2-3.2,20.8-8.8C205.7,224.7,206.7,218.1,206.9,215 M209.2,211.3
						C209.2,211.3,209.2,211.3,209.2,211.3l-1.5,0.5c-0.1,0-10.2,3.4-25.6,3.8c-1.2,0-2.5,0-3.8,0c-14.3,0-27.6-1.7-27.8-1.7
						l-1.4-0.2c0,0,0,0,0,0c0,0-0.1,0-0.1,0s-0.1,0.1-0.1,0.1l0.1,1.6c0,0.3,1.8,26.5,30.3,26.5c0.4,0,0.7,0,1.1,0
						c9.9-0.2,17.5-3.5,22.6-9.7c6.7-8.2,6.4-18.6,6.4-19l-0.1-1.7C209.3,211.4,209.3,211.3,209.2,211.3
						C209.3,211.3,209.2,211.3,209.2,211.3L209.2,211.3z M178.3,218.6c1.3,0,2.6,0,3.8,0c12.2-0.3,21.1-2.4,24.6-3.4
						c-0.3,3.4-1.3,9.7-5.6,15c-4.6,5.6-11.5,8.6-20.7,8.8c-0.4,0-0.7,0-1.1,0c-5.6,0-24.2-1.6-27.4-21.9
						C156.2,217.5,167,218.6,178.3,218.6L178.3,218.6z"/>
				</g>
			</g>
			<g id="_x31__10_" class="st5">
				<g>
					<path class="st0" d="M152.5,224.6C152.4,224.6,152.4,224.6,152.5,224.6l-2.2-10.2c0,0,0-0.1,0-0.1c0,0,0,0,0.1,0l11.1,1.6
						l15.1,0.9l11.8-0.3l9.9-1.5l9.9-2.1c0,0,0,0,0.1,0c0,0,0,0,0,0.1l-0.7,6.7l-1.6,3.6C205.8,223.3,153,224.6,152.5,224.6
						L152.5,224.6z"/>
					<path class="st3" d="M208.1,213l-0.7,6.7l-1.6,3.5c0,0-52.8,1.2-53.3,1.2l-2.1-10.1l11,1.6l15.1,0.9l11.8-0.3l9.9-1.5
						L208.1,213 M208.1,212.9C208.1,212.9,208.1,212.9,208.1,212.9l-9.9,2.1l-9.9,1.5l-11.8,0.3l-15.1-0.9l-11-1.6c0,0,0,0,0,0
						c0,0-0.1,0-0.1,0.1c0,0-0.1,0.1,0,0.1l2.1,10.1c0,0.1,0.1,0.1,0.1,0.1l0,0l53.4-1.2c0.1,0,0.1,0,0.1-0.1l1.6-3.5c0,0,0,0,0-0.1
						l0.7-6.7C208.2,213,208.2,213,208.1,212.9C208.2,212.9,208.1,212.9,208.1,212.9L208.1,212.9z M208.1,213.2L208.1,213.2
						L208.1,213.2L208.1,213.2z"/>
				</g>
				<g>
					<path class="st3" d="M173.2,237.3c-1.6,0-10.9-3.6-11.2-3.7l-5.6-4.4l-2.9-4.7c0,0,0-0.1,0-0.1s0,0,0.1,0l52.1-1.2
						c0,0,0,0,0.1,0c0,0,0,0,0,0.1l-0.5,2.4l-3.2,4.1l-5.4,3.8l-6,2.3l-6.6,1.2h-1.4c-2.4,0-8.2,0-9.1,0.2
						C173.4,237.3,173.3,237.3,173.2,237.3L173.2,237.3z"/>
					<path class="st3" d="M205.6,223.3L205.6,223.3 M205.6,223.3l-0.5,2.4l-3.2,4l-5.4,3.8l-6,2.2l-6.6,1.2c0,0-0.5,0-1.4,0
						c-2.6,0-8.2,0-9.1,0.2c0,0-0.1,0-0.1,0c-1.6,0-11.2-3.7-11.2-3.7l-5.6-4.4l-2.9-4.7L205.6,223.3 M205.6,223.1L205.6,223.1
						L205.6,223.1L205.6,223.1L205.6,223.1C205.6,223.1,205.6,223.1,205.6,223.1C205.6,223.1,205.6,223.1,205.6,223.1
						C205.6,223.1,205.6,223.1,205.6,223.1C205.6,223.1,205.6,223.1,205.6,223.1C205.6,223.1,205.6,223.1,205.6,223.1
						C205.6,223.1,205.6,223.1,205.6,223.1l-52.1,1.2c-0.1,0-0.1,0-0.1,0.1s0,0.1,0,0.1l2.9,4.7c0,0,0,0,0,0l5.6,4.4c0,0,0,0,0,0
						c0.4,0.1,9.6,3.7,11.3,3.7c0.1,0,0.1,0,0.2,0c0.8-0.2,6.6-0.2,9-0.2c0.8,0,1.4,0,1.4,0l6.6-1.2l6-2.3c0,0,0,0,0,0l5.4-3.8
						c0,0,0,0,0,0l3.2-4c0,0,0,0,0-0.1l0.5-2.4c0,0,0,0,0-0.1C205.7,223.2,205.6,223.1,205.6,223.1L205.6,223.1z M205.6,223.4
						L205.6,223.4L205.6,223.4L205.6,223.4z"/>
				</g>
				<g>
					<path class="st3" d="M153.5,225.8C153.5,225.8,153.5,225.8,153.5,225.8C153.5,225.8,153.5,225.8,153.5,225.8l-0.1-2.6
						c0,0,0-0.1,0.1-0.1l52.1-1.2c0,0,0,0,0.1,0c0,0,0,0,0,0.1l0.1,2.5c0,0,0,0.1-0.1,0.1C205.6,224.6,153.5,225.8,153.5,225.8z"/>
					<path class="st3" d="M205.5,222l0.1,2.5l-52.1,1.2l-0.1-2.5L205.5,222 M205.5,221.9L205.5,221.9l-52.1,1.2
						c-0.1,0-0.1,0.1-0.1,0.1l0.1,2.5c0,0,0,0.1,0.1,0.1c0,0,0.1,0,0.1,0l0,0l52.1-1.2c0.1,0,0.1-0.1,0.1-0.1l-0.1-2.5
						c0,0,0-0.1-0.1-0.1C205.6,221.9,205.6,221.9,205.5,221.9L205.5,221.9z"/>
				</g>
				<g>
					<path class="st6" d="M177.2,237c-1.2,0-2.2,0-2.6-0.1c-0.7-0.7-0.7-0.7-0.6-1c0.1-0.1,0.1-0.4,0.1-0.8l0-0.4
						c0-1.6-0.1-3.1,1-4.3c1.3-1.4,4.3-2.1,9.2-2.2c0.4,0,0.7,0,1.1,0c7.7,0,8.4,2.2,9.2,5.1l0.1,0.2c0,0,0,0.1-0.1,0.1l-6.6,2.2
						c-0.1,0-4.5,1.1-9.1,1.2C178.4,237,177.8,237,177.2,237z"/>
					<path class="st3" d="M185.3,228.3c7.9,0,8.3,2.3,9.2,5.2l-6.6,2.2c0,0-4.4,1.1-9.1,1.2c-0.5,0-1.1,0-1.7,0
						c-1.1,0-2.1,0-2.6-0.1c-1-1-0.4-0.5-0.4-1.8c-0.1-3.6-0.6-6.6,10.2-6.8C184.6,228.3,185,228.3,185.3,228.3 M185.3,228.1
						c-0.3,0-0.7,0-1.1,0c-5,0.1-7.9,0.8-9.3,2.2c-1.1,1.2-1.1,2.7-1,4.3l0,0.4c0,0.4-0.1,0.6-0.1,0.8c-0.1,0.4-0.1,0.5,0.6,1.1
						c0,0,0.1,0,0.1,0c0.4,0,1.4,0.1,2.6,0.1c0.6,0,1.2,0,1.7,0c4.6-0.1,9.1-1.2,9.1-1.2l6.6-2.2c0.1,0,0.1-0.1,0.1-0.2l-0.1-0.2
						C193.8,230.4,193.1,228.1,185.3,228.1L185.3,228.1z"/>
				</g>
				<g>
					<path class="st3" d="M179.1,238.5c-28.3,0-30-22.8-30-23.1l-0.1-1.6c0,0,0,0,0-0.1c0,0,0,0,0.1,0l1.4,0.2
						c0.1,0,13.5,1.7,27.8,1.7c1.3,0,2.5,0,3.8,0c15.2-0.4,25.2-3.6,25.6-3.8l1.4-0.5c0,0,0,0,0,0c0,0,0,0,0,0c0,0,0,0,0,0.1
						l0.1,1.7c0,0.4,0.3,8.6-5.4,15.6c-5,6.2-12.9,9.5-23.5,9.7C179.9,238.5,179.5,238.5,179.1,238.5z M151.8,216.9
						c3.3,17.4,21.7,18.7,27.2,18.7c0.4,0,0.8,0,1.2,0c9.9-0.2,17.2-3.2,21.8-8.8c3.5-4.3,4.4-9.2,4.7-11.7
						c-3.4,0.9-12.3,3.1-24.6,3.4c-1.3,0-2.6,0-3.8,0C166.9,218.5,156.1,217.4,151.8,216.9z"/>
					<path class="st3" d="M209.2,211.4l0.1,1.7c0,0.4,0.3,8.5-5.4,15.6c-5,6.2-12.9,9.4-23.5,9.7c-0.4,0-0.9,0-1.3,0
						c-28.2,0-29.9-22.8-29.9-23l-0.1-1.6l1.4,0.2c0.1,0,13.6,1.7,27.8,1.7c1.3,0,2.5,0,3.8,0c15.5-0.4,25.6-3.7,25.7-3.8
						L209.2,211.4 M206.9,215c-3.4,1-12.3,3.1-24.7,3.4c-1.3,0-2.6,0-3.8,0c-11.6,0-22.6-1.1-26.6-1.6c0.9,4.9,5.4,18.9,27.3,18.9
						c0.4,0,0.8,0,1.2,0c9.9-0.2,17.3-3.2,21.8-8.8C205.7,222.5,206.6,217.5,206.9,215 M209.2,211.3
						C209.2,211.3,209.2,211.3,209.2,211.3l-1.5,0.5c-0.1,0-10.2,3.4-25.6,3.8c-1.2,0-2.5,0-3.8,0c-14.3,0-27.7-1.7-27.8-1.7
						l-1.4-0.2c0,0,0,0,0,0c0,0-0.1,0-0.1,0s-0.1,0.1-0.1,0.1l0.1,1.6c0,0.2,1.7,23.1,30.1,23.1c0.4,0,0.8,0,1.3,0
						c10.6-0.2,18.6-3.5,23.6-9.7c5.7-7.1,5.5-15.3,5.4-15.7l-0.1-1.7C209.3,211.4,209.3,211.3,209.2,211.3
						C209.3,211.3,209.2,211.3,209.2,211.3L209.2,211.3z M178.3,218.6c1.3,0,2.6,0,3.8,0c12.2-0.3,21.1-2.4,24.5-3.3
						c-0.3,2.6-1.2,7.4-4.7,11.6c-4.5,5.6-11.8,8.6-21.7,8.8c-0.4,0-0.8,0-1.2,0c-9.4,0-16.6-2.6-21.4-7.6c-3.9-4-5.2-8.5-5.7-11
						C156.2,217.5,167,218.6,178.3,218.6L178.3,218.6z"/>
				</g>
			</g>
		</g>
		<g id="S_3_" class="st4">
			<g class="st5">
				<path class="st0" d="M177.9,229c-14.8,0-22.8-3.7-26.9-6.7c-4.5-3.3-5.5-6.7-5.5-6.8c0,0,0-0.1,0-0.1s0,0,0.1,0l34.2,1.4
					l31.9-2.7c0,0,0,0,0.1,0c0,0,0,0,0,0.1c0,0.1-1.3,14-31.6,14.7C179.4,229,178.6,229,177.9,229z"/>
				<path class="st3" d="M211.7,214.2c0,0-1,13.9-31.6,14.7c-0.8,0-1.5,0-2.2,0c-28.6,0-32.4-13.5-32.4-13.5l34.2,1.4L211.7,214.2
					 M211.7,214.1L211.7,214.1l-32,2.7l-34.1-1.4c0,0,0,0,0,0c-0.1,0-0.1,0-0.1,0.1s0,0.1,0,0.1c0,0.1,1,3.4,5.5,6.8
					c4.1,3.1,12.2,6.8,27,6.8c0.7,0,1.5,0,2.2,0c8.8-0.2,20.6-1.7,27.4-7.6c4.1-3.6,4.3-7,4.4-7.2
					C211.8,214.2,211.8,214.1,211.7,214.1C211.8,214.1,211.7,214.1,211.7,214.1L211.7,214.1z M211.7,214.4L211.7,214.4L211.7,214.4
					L211.7,214.4z"/>
			</g>
			<g class="st5">
				<path class="st3" d="M155.4,225.8C155.4,225.8,155.4,225.8,155.4,225.8l-1.8-2.5c0,0,0-0.1,0-0.1c0,0,0,0,0.1,0l52.3-1.2
					c0,0,0.1,0,0.1,0c0,0,0,0.1,0,0.1l-1.2,2C204.9,224,155.4,225.8,155.4,225.8z"/>
				<path class="st3" d="M206,222l-1.2,2l-49.4,1.7l-1.7-2.5L206,222 M206,221.9C206,221.9,206,221.9,206,221.9l-52.3,1.2
					c-0.1,0-0.1,0-0.1,0.1c0,0.1,0,0.1,0,0.1l1.7,2.5c0,0,0.1,0.1,0.1,0.1c0,0,0,0,0,0l49.4-1.7c0.1,0,0.1,0,0.1-0.1l1.2-2
					c0-0.1,0-0.1,0-0.1C206.1,221.9,206.1,221.9,206,221.9L206,221.9z M206,222.1L206,222.1L206,222.1L206,222.1z"/>
			</g>
			<g class="st5">
				<path class="st3" d="M178.3,231.4c-27.6,0-33.6-14.8-33.8-15.4l-0.8-2.1c0,0,0-0.1,0-0.1c0,0,0,0,0.1,0l2,0.2
					c0.2,0,17.4,1.6,32.3,1.6c1.4,0,2.8,0,4.1-0.1c15.5-0.4,30.1-3.9,30.2-3.9c0,0,1.9-0.5,1.9-0.5c0,0,0,0,0.1,0c0,0,0,0,0,0.1
					l-0.5,2.1c-0.2,0.7-4.4,17.2-33.6,17.9C179.5,231.4,178.9,231.4,178.3,231.4z M148.1,217.1c7.6,10.4,23.7,11.5,30.2,11.5
					c0.6,0,1.2,0,1.8,0c21-0.5,28.2-9.5,30.3-13.5c-4.6,1-16.2,3.1-28.3,3.4c-1.4,0-2.7,0.1-4.1,0.1
					C166.4,218.5,153.3,217.5,148.1,217.1z"/>
				<path class="st3" d="M214.2,211.3l-0.5,2.1c-0.2,0.7-4.4,17.2-33.6,17.9c-0.6,0-1.2,0-1.9,0c-27.5,0-33.5-14.7-33.8-15.4
					l-0.8-2.1l2,0.2c0.2,0,17.5,1.6,32.3,1.6c1.4,0,2.8,0,4.1-0.1c15.5-0.4,30.1-3.9,30.2-3.9L214.2,211.3 M210.6,214.9
					c-4.8,1-16.3,3.2-28.4,3.4c-1.4,0-2.7,0.1-4.1,0.1c-11.7,0-24.8-1-30.1-1.4c2.8,3.9,10.8,11.6,30.4,11.6c0.6,0,1.2,0,1.8,0
					C201.1,228.1,208.3,219.2,210.6,214.9 M214.2,211.2C214.2,211.2,214.2,211.2,214.2,211.2l-1.9,0.4c-0.1,0-14.8,3.5-30.2,3.9
					c-1.3,0-2.7,0.1-4.1,0.1c-14.9,0-32.1-1.6-32.3-1.6l-2-0.2h0c-0.1,0-0.1,0-0.1,0.1s0,0.1,0,0.1l0.8,2.1
					c0.2,0.6,6.2,15.4,33.9,15.4c0.6,0,1.2,0,1.9,0c29.3-0.7,33.6-17.3,33.7-18l0.5-2.1c0-0.1,0-0.1,0-0.1
					C214.3,211.2,214.2,211.2,214.2,211.2L214.2,211.2z M214.2,211.5L214.2,211.5L214.2,211.5L214.2,211.5z M178,218.6
					c1.4,0,2.8,0,4.1-0.1c11.9-0.3,23.4-2.4,28.1-3.4c-6.3,11.5-23.2,13.2-30.2,13.3c-0.6,0-1.2,0-1.8,0c-6.5,0-22.5-1.1-30.1-11.3
					C153.6,217.6,166.5,218.6,178,218.6L178,218.6z"/>
			</g>
		</g>
		<g id="R_3_" class="st4">
			<g class="st5">
				<path class="st3" d="M179.9,237.3c-4.5,0-7.8-1.3-9.8-3.8c-3.1-3.9-1.9-9.4-1.9-9.4l23.5-0.6c0.1,0.1,1.2,6.1-2.1,10.1
					C187.5,236.1,184.3,237.4,179.9,237.3L179.9,237.3L179.9,237.3z"/>
				<path class="st3" d="M191.7,223.6c0,0,2.7,13.7-11.7,13.7c0,0-0.1,0-0.1,0c-14.5-0.1-11.6-13.1-11.6-13.1L191.7,223.6
					 M191.7,223.4C191.6,223.4,191.6,223.4,191.7,223.4l-23.4,0.6c-0.1,0-0.1,0.1-0.1,0.1c0,0.1-1.2,5.6,2,9.5
					c2,2.5,5.3,3.8,9.8,3.8h0.1c4.4,0,7.6-1.3,9.7-3.7c3.3-4.1,2.2-10.1,2.2-10.1C191.8,223.5,191.7,223.4,191.7,223.4L191.7,223.4z
					"/>
			</g>
			<g class="st5">
				<path class="st0" d="M168.4,224.2C168.3,224.2,168.3,224.2,168.4,224.2c-0.1-0.1-0.1-0.1-0.1-0.1c0-0.1,3-6.8,11.5-7.3
					c0.5,0.1,11.7,2.3,11.8,6.8c0,0,0,0.1-0.1,0.1L168.4,224.2z"/>
				<path class="st3" d="M179.8,216.9c0,0,11.6,2.3,11.7,6.7c-6.1,0.1-11.7,0.3-11.7,0.3l-11.5,0.3
					C168.4,224.1,171.3,217.4,179.8,216.9 M179.8,216.7C179.8,216.7,179.8,216.7,179.8,216.7c-8.5,0.5-11.5,7.3-11.6,7.4
					c0,0.1,0,0.1,0,0.1s0.1,0.1,0.1,0.1l0,0l11.5-0.3l11.7-0.3c0.1,0,0.1-0.1,0.1-0.1C191.6,219.1,180.3,216.8,179.8,216.7
					C179.8,216.7,179.8,216.7,179.8,216.7L179.8,216.7z"/>
			</g>
			<g class="st5">
				<path class="st3" d="M168.4,225.5C168.4,225.5,168.4,225.5,168.4,225.5C168.3,225.5,168.3,225.4,168.4,225.5l-0.1-2.6
					c0,0,0-0.1,0.1-0.1l23.2-0.5c0,0,0,0,0.1,0c0,0,0,0,0,0.1l0.1,2.5c0,0,0,0.1-0.1,0.1C191.6,224.9,168.4,225.5,168.4,225.5z"/>
				<path class="st3" d="M191.5,222.3l0.1,2.5l-23.2,0.5l-0.1-2.5L191.5,222.3 M191.5,222.2L191.5,222.2l-23.2,0.5
					c-0.1,0-0.1,0.1-0.1,0.1l0.1,2.5c0,0,0,0.1,0.1,0.1c0,0,0.1,0,0.1,0l0,0l23.2-0.5c0.1,0,0.1-0.1,0.1-0.1l-0.1-2.5
					c0,0,0-0.1-0.1-0.1C191.6,222.2,191.5,222.2,191.5,222.2L191.5,222.2z"/>
			</g>
			<g class="st5">
				<path class="st6" d="M179,237.4c-0.6,0-1.2,0-1.7-0.1c-0.8-1.1-1.2-2.3-1.3-3.5l0-0.5c-0.1-1.9-0.1-3.4,1-4.6
					c1.1-1.1,3.1-1.7,6.4-1.8c0.2,0,0.4,0,0.6,0c5.8,0,6.3,2.1,6.8,4.8l0.1,0.6l-4.9,4.1c-0.1,0-3.3,0.9-6.6,1
					C179.3,237.4,179.1,237.4,179,237.4z"/>
				<path class="st3" d="M184.1,227c6.2,0,6.2,2.3,6.9,5.3l-4.9,4c0,0-3.2,0.9-6.6,1c-0.2,0-0.3,0-0.5,0c-0.7,0-1.2,0-1.7-0.1
					c-0.7-1-1.2-2.2-1.2-3.4c-0.1-3.6-0.5-6.6,7.4-6.8C183.7,227,183.9,227,184.1,227 M184.1,226.8c-0.2,0-0.4,0-0.6,0
					c-3.3,0.1-5.4,0.6-6.5,1.8c-1.1,1.2-1.1,2.9-1,4.7l0,0.5c0,1.2,0.4,2.5,1.2,3.5c0,0,0.1,0.1,0.1,0.1c0.5,0.1,1.1,0.1,1.7,0.1
					c0.2,0,0.3,0,0.5,0c3.4-0.1,6.6-1,6.6-1c0,0,0,0,0.1,0l4.9-4c0,0,0.1-0.1,0.1-0.1c0-0.2-0.1-0.4-0.1-0.6
					C190.4,229,190,226.8,184.1,226.8L184.1,226.8z"/>
			</g>
			<g class="st5">
				<path class="st3" d="M179.8,238.2c-7.1,0-12.9-4.9-13-10.9c-0.1-6.2,5.7-11.3,12.9-11.5h0.4c7.1,0,12.9,4.9,13,10.9
					c0.1,6.2-5.7,11.3-12.9,11.5H179.8z M179.7,218.6c-5.9,0.1-10.7,4.1-10.6,8.8c0.1,4.6,4.9,8.3,10.6,8.3h0.3
					c5.9-0.1,10.7-4.1,10.6-8.8c-0.1-4.6-4.9-8.3-10.6-8.3H179.7z"/>
				<path class="st3" d="M180,215.9c7,0,12.8,4.8,12.9,10.8c0.1,6.1-5.6,11.3-12.8,11.4c-0.1,0-0.2,0-0.4,0c-7,0-12.8-4.8-12.9-10.8
					c-0.1-6.1,5.6-11.3,12.8-11.4C179.8,215.9,179.9,215.9,180,215.9 M179.8,235.6c0.1,0,0.2,0,0.3,0c6-0.1,10.8-4.1,10.7-8.8
					c-0.1-4.6-4.9-8.3-10.7-8.3c-0.1,0-0.2,0-0.3,0c-6,0.1-10.8,4.1-10.7,8.8C169.1,231.9,173.9,235.6,179.8,235.6 M180,215.8
					c-0.1,0-0.2,0-0.4,0c-7.3,0.2-13.1,5.4-13,11.6c0.1,6.1,6,11,13.1,11c0.1,0,0.2,0,0.4,0c7.3-0.2,13.1-5.4,13-11.6
					C193,220.7,187.1,215.8,180,215.8L180,215.8z M179.8,235.5c-5.7,0-10.5-3.7-10.6-8.2c-0.1-4.6,4.6-8.6,10.5-8.7
					c0.1,0,0.2,0,0.3,0c5.7,0,10.5,3.7,10.6,8.2c0.1,4.6-4.6,8.6-10.5,8.7C180,235.5,179.9,235.5,179.8,235.5L179.8,235.5z"/>
			</g>
		</g>
		<g id="Oh_3_" class="st4">
			<g class="st5">
				<path class="st3" d="M180,245.5c-3.6-0.1-6.6-1.3-8.7-3.8c-5.2-6.1-3.8-17.4-3.7-17.5l24.6-0.6c0.1,0.2,1.7,12.4-3.7,18.5
					c-2,2.3-4.8,3.5-8.2,3.5L180,245.5z"/>
				<path class="st3" d="M192.2,223.6c0,0,2.9,21.8-11.9,21.8c-0.1,0-0.2,0-0.3,0c-15.1-0.3-12.3-21.2-12.3-21.2L192.2,223.6
					 M192.2,223.4L192.2,223.4l-24.5,0.6c-0.1,0-0.1,0.1-0.1,0.1c0,0.1-1.5,11.5,3.8,17.6c2.1,2.5,5.1,3.8,8.7,3.8
					c0.1,0,0.2,0,0.3,0c3.5,0,6.2-1.2,8.3-3.5c5.4-6.1,3.8-18.3,3.8-18.5C192.3,223.5,192.3,223.4,192.2,223.4L192.2,223.4z"/>
			</g>
			<g class="st5">
				<path class="st0" d="M168.4,224.2C168.3,224.2,168.3,224.2,168.4,224.2c-0.1-0.1-0.1-0.1-0.1-0.1c0-0.1,3-6.8,11.5-7.3
					c0.5,0.1,11.7,2.3,11.8,6.8c0,0,0,0.1-0.1,0.1L168.4,224.2z"/>
				<path class="st3" d="M179.8,216.9c0,0,11.6,2.3,11.7,6.7c-6.1,0.1-11.7,0.3-11.7,0.3l-11.5,0.3
					C168.4,224.1,171.3,217.4,179.8,216.9 M179.8,216.7C179.8,216.7,179.8,216.7,179.8,216.7c-8.5,0.5-11.5,7.3-11.6,7.4
					c0,0.1,0,0.1,0,0.1s0.1,0.1,0.1,0.1l0,0l11.5-0.3l11.7-0.3c0.1,0,0.1-0.1,0.1-0.1C191.6,219.1,180.3,216.8,179.8,216.7
					C179.8,216.7,179.8,216.7,179.8,216.7L179.8,216.7z"/>
			</g>
			<g class="st5">
				<path class="st3" d="M169.1,225.5C169.1,225.5,169.1,225.5,169.1,225.5C169.1,225.4,169,225.4,169.1,225.5l-0.1-2.6
					c0,0,0-0.1,0.1-0.1l21.7-0.5c0,0,0,0,0.1,0c0,0,0,0,0,0.1l0.1,2.5c0,0,0,0.1-0.1,0.1L169.1,225.5z"/>
				<path class="st3" d="M190.8,222.4l0.1,2.5l-21.7,0.5l-0.1-2.5L190.8,222.4 M190.8,222.2L190.8,222.2l-21.7,0.5
					c-0.1,0-0.1,0.1-0.1,0.1l0.1,2.5c0,0,0,0.1,0.1,0.1c0,0,0.1,0,0.1,0l0,0l21.7-0.5c0.1,0,0.1-0.1,0.1-0.1l-0.1-2.5
					c0,0,0-0.1-0.1-0.1C190.9,222.2,190.8,222.2,190.8,222.2L190.8,222.2z"/>
			</g>
			<g class="st5">
				<path class="st6" d="M179.2,246.1c-0.6,0-1.2,0-1.7-0.1c-0.8-1.1-1.2-2.3-1.3-3.5l0-0.4c0-1.8-0.1-3.3,0.9-4.5
					c1-1.3,3.1-1.9,6.6-2c0.4,0,0.7,0,1.1,0c6.3,0,6.3,1.5,6.4,3.6c0,0.6,0,1.2,0.2,1.8l-4.9,4.1c-0.1,0-3.3,0.9-6.6,1
					C179.5,246.1,179.3,246.1,179.2,246.1z"/>
				<path class="st3" d="M184.7,235.7c7.9,0,5.8,2.4,6.4,5.3l-4.9,4c0,0-3.2,0.9-6.6,1c-0.2,0-0.3,0-0.5,0c-0.7,0-1.2,0-1.7-0.1
					c-0.7-1-1.2-2.2-1.2-3.4c-0.1-3.6-0.5-6.6,7.4-6.8C184,235.7,184.4,235.7,184.7,235.7 M184.7,235.5c-0.3,0-0.7,0-1.1,0
					c-3.5,0.1-5.6,0.7-6.7,2c-0.9,1.2-0.9,2.8-0.9,4.5l0,0.4c0,1.2,0.4,2.5,1.2,3.5c0,0,0.1,0.1,0.1,0.1c0.5,0.1,1.1,0.1,1.7,0.1
					c0.2,0,0.3,0,0.5,0c3.4-0.1,6.6-1,6.6-1c0,0,0,0,0.1,0l4.9-4c0,0,0.1-0.1,0.1-0.1c-0.1-0.6-0.1-1.2-0.2-1.8
					C191.1,236.9,190.8,235.5,184.7,235.5L184.7,235.5z"/>
			</g>
			<g class="st5">
				<path class="st3" d="M180,247.4c-7.6,0-14-7-14.2-15.7c-0.2-8.8,6-16.1,13.8-16.3h0.3c7.6,0,14,7,14.2,15.7
					c0.2,8.8-6,16.1-13.8,16.3H180z M179.7,218.3c-6.4,0.1-11.6,6.2-11.4,13.4c0.1,7.1,5.4,12.9,11.7,12.9h0.2
					c6.4-0.1,11.6-6.2,11.4-13.4c-0.1-7.1-5.4-12.9-11.7-12.9H179.7z"/>
				<path class="st3" d="M180,215.5c7.6,0,13.9,6.9,14.1,15.6c0.2,8.8-6,16.1-13.8,16.2c-0.1,0-0.2,0-0.3,0
					c-7.6,0-13.9-6.9-14.1-15.6c-0.2-8.8,6-16.1,13.8-16.2C179.8,215.5,179.9,215.5,180,215.5 M180,244.6c0.1,0,0.2,0,0.2,0
					c6.5-0.1,11.6-6.2,11.5-13.5c-0.1-7.2-5.4-12.9-11.8-12.9c-0.1,0-0.2,0-0.2,0c-6.5,0.1-11.6,6.2-11.5,13.5
					C168.4,238.9,173.7,244.6,180,244.6 M180,215.4L180,215.4c-0.1,0-0.2,0-0.3,0c-7.8,0.2-14.1,7.5-13.9,16.4
					c0.2,8.7,6.6,15.7,14.3,15.7c0.1,0,0.2,0,0.3,0c7.9-0.2,14.1-7.5,13.9-16.4C194.1,222.4,187.6,215.4,180,215.4L180,215.4z
					 M180,244.5c-6.3,0-11.5-5.7-11.6-12.8c-0.1-7.2,4.9-13.2,11.3-13.3c0.1,0,0.2,0,0.2,0c6.3,0,11.5,5.7,11.6,12.8
					c0.1,7.2-4.9,13.2-11.3,13.3C180.2,244.5,180.1,244.5,180,244.5L180,244.5z"/>
			</g>
		</g>
		<g id="M_4_" class="st4">
			<path class="st7" d="M179.6,222.7c-3.1,0-6.4-0.1-9.6-0.4c-6.5-0.6-12-1.6-15.4-2.4c0,0,0,0-0.1,0c0,0,0,0,0-0.1l0.7-2.4
				c0,0,0-0.1,0.1-0.1c0,0,0,0,0,0c4.6,1,13.8,2.7,24.4,2.7c9.1,0,17.2-1.2,24.4-3.6c0,0,0,0,0,0c0,0,0.1,0,0.1,0.1l0.8,2.4
				c0,0,0,0,0,0.1c0,0,0,0,0,0c-6.8,2.3-14.5,3.6-23,3.8C181.1,222.7,180.3,222.7,179.6,222.7z"/>
			<path class="st7" d="M204.1,216.5l0.8,2.4c-7.7,2.6-15.8,3.6-23,3.8c-0.8,0-1.6,0-2.4,0c-3.5,0-6.7-0.2-9.6-0.4
				c-6.5-0.6-12-1.6-15.4-2.4l0.7-2.4c4.9,1.1,14,2.7,24.4,2.7C187.5,220.1,196,219.2,204.1,216.5 M204.1,216.4
				C204.1,216.4,204.1,216.4,204.1,216.4c-7.2,2.4-15.4,3.6-24.4,3.6c-10.5,0-19.8-1.7-24.4-2.7c0,0,0,0,0,0c-0.1,0-0.1,0-0.1,0.1
				l-0.7,2.4c0,0,0,0.1,0,0.1c0,0,0.1,0.1,0.1,0.1c3.4,0.8,8.9,1.8,15.4,2.4c3.2,0.3,6.5,0.4,9.6,0.4c0.8,0,1.6,0,2.4,0
				c8.5-0.2,16.2-1.5,23-3.8c0,0,0.1,0,0.1-0.1c0,0,0-0.1,0-0.1l-0.8-2.4C204.2,216.4,204.1,216.4,204.1,216.4L204.1,216.4z"/>
		</g>
		<g id="L_3_" class="st4">
			<g class="st5">
				<path class="st3" d="M172.8,237.1c-1.7,0-11.4-3.5-11.8-3.6l-5.9-4.3l-3.1-4.6c0,0,0-0.1,0-0.1c0,0,0,0,0.1,0l54.6-1.3
					c0,0,0,0,0.1,0s0,0,0,0.1l-0.5,2.3l-3.4,4l-5.7,3.8l-6.3,2.2l-6.9,1.2h-0.8c-2.1,0-9.2,0-10.1,0.2
					C172.9,237.1,172.8,237.1,172.8,237.1L172.8,237.1z"/>
				<path class="st3" d="M206.7,223.2L206.7,223.2 M206.7,223.2l-0.5,2.3l-3.4,4l-5.7,3.8l-6.3,2.2l-6.9,1.2c0,0-0.3,0-0.8,0
					c-2.4,0-9.2,0-10.2,0.3c0,0-0.1,0-0.2,0c-1.7,0-11.8-3.6-11.8-3.6l-5.9-4.3l-3.1-4.6L206.7,223.2 M206.7,223.1L206.7,223.1
					L206.7,223.1L206.7,223.1L206.7,223.1L206.7,223.1L206.7,223.1L206.7,223.1L206.7,223.1l-54.6,1.3c-0.1,0-0.1,0-0.1,0.1
					c0,0.1,0,0.1,0,0.1l3.1,4.6c0,0,0,0,0,0l5.9,4.3c0,0,0,0,0,0c0.4,0.1,10.1,3.6,11.8,3.6c0.1,0,0.1,0,0.2,0
					c0.9-0.2,8-0.2,10.1-0.2h0.8l6.9-1.2l6.3-2.2l5.7-3.8c0,0,0,0,0,0l3.4-4c0,0,0,0,0-0.1l0.5-2.3c0,0,0,0,0-0.1
					C206.9,223.2,206.8,223.1,206.7,223.1L206.7,223.1L206.7,223.1L206.7,223.1z M206.7,223.4L206.7,223.4L206.7,223.4L206.7,223.4z
					"/>
			</g>
			<g class="st5">
				<path class="st0" d="M150.3,224.6C150.3,224.6,150.3,224.6,150.3,224.6l-2.4-10.2c0,0,0-0.1,0-0.1c0,0,0,0,0.1,0L160,216
					l16.4,0.9l12.8-0.3l10.6-1.5l10.7-2.2c0,0,0,0,0.1,0c0,0,0,0,0,0.1l-0.8,6.7l-1.7,3.6C207.9,223.3,150.9,224.6,150.3,224.6
					C150.3,224.6,150.3,224.6,150.3,224.6z"/>
				<path class="st3" d="M210.4,213l-0.8,6.7l-1.7,3.5c0,0-57,1.3-57.6,1.3l-2.3-10.1l11.9,1.6l16.4,0.9l12.8-0.3l10.7-1.5
					L210.4,213 M210.4,212.8C210.4,212.8,210.4,212.8,210.4,212.8l-10.7,2.2l-10.6,1.5l-12.8,0.3l-16.3-0.9l-11.9-1.6c0,0,0,0,0,0
					c0,0-0.1,0-0.1,0.1c0,0-0.1,0.1,0,0.1l2.3,10.1c0,0.1,0.1,0.1,0.1,0.1l0,0l57.6-1.3c0.1,0,0.1,0,0.1-0.1l1.7-3.5c0,0,0,0,0-0.1
					l0.8-6.7c0-0.1,0-0.1-0.1-0.1C210.5,212.9,210.4,212.8,210.4,212.8L210.4,212.8z M210.4,213.1L210.4,213.1L210.4,213.1
					L210.4,213.1z"/>
			</g>
			<g class="st5">
				<path class="st6" d="M178.6,237.3c-1.1-1.8-2-3.9-2.7-6.2c-1.2-4.5,3.5-7.7,3.5-7.7c0,0,1.8-0.8,3.7-0.8c2.4,0,4.1,1.3,4.9,3.7
					c0.4,1.1,0.6,2.1,0.9,3.1c0.8,2.9,1.4,5.2,3.3,6.2c0,0,0,0,0,0.1s0,0.1-0.1,0.1c-2.6,1.1-2.8,1.1-2.8,1.1l0,0
					c-0.8,0-9.3,0.8-9.4,0.8c0,0,0,0,0,0C179.9,237.5,178.6,237.3,178.6,237.3z"/>
				<path class="st3" d="M183.1,222.6c1.8,0,3.9,0.7,4.8,3.6c1.4,4.4,1.6,8.1,4.2,9.3c-1.4,0.6-2.6,1.1-2.8,1.1h0c0,0,0,0-0.1,0
					c-0.7,0-9.3,0.8-9.3,0.8l-1.3-0.2c-1-1.6-1.9-3.6-2.6-6.2c-1.2-4.5,3.5-7.6,3.5-7.6S181.2,222.6,183.1,222.6 M183.1,222.4
					c-2,0-3.7,0.8-3.8,0.8c-0.1,0-4.8,3.2-3.6,7.8c0.7,2.4,1.6,4.5,2.6,6.2c0,0,0.1,0.1,0.1,0.1l1.3,0.2c0.1,0,8.6-0.8,9.4-0.8
					c0,0,0,0,0.1,0c0.1,0,0.2,0,2.9-1.1c0.1,0,0.1-0.1,0.1-0.1s0-0.1-0.1-0.1c-1.9-0.9-2.5-3.2-3.2-6.1c-0.3-1-0.5-2-0.9-3.1
					C187.1,223.1,184.9,222.4,183.1,222.4L183.1,222.4z"/>
			</g>
			<g class="st5">
				<path class="st3" d="M151.1,225.9C151.1,225.9,151.1,225.9,151.1,225.9C151.1,225.9,151,225.8,151.1,225.9l-0.1-2.6
					c0,0,0-0.1,0.1-0.1l56.9-1.3c0,0,0,0,0.1,0c0,0,0,0,0,0.1l0.1,2.5c0,0,0,0.1-0.1,0.1C208,224.6,151.1,225.9,151.1,225.9z"/>
				<path class="st3" d="M207.9,221.9l0.1,2.5l-56.8,1.3l-0.1-2.5L207.9,221.9 M207.9,221.8C207.9,221.8,207.9,221.8,207.9,221.8
					l-56.9,1.3c-0.1,0-0.1,0.1-0.1,0.1l0.1,2.5c0,0,0,0.1,0.1,0.1c0,0,0.1,0,0.1,0l0,0l56.8-1.3c0.1,0,0.1-0.1,0.1-0.1l-0.1-2.5
					C208.1,221.9,208,221.9,207.9,221.8C208,221.8,207.9,221.8,207.9,221.8L207.9,221.8z"/>
			</g>
			<g class="st5">
				<path class="st3" d="M178.9,238.8c-15.6,0-23.4-6.1-27.3-11.2c-4.4-5.9-4.8-11.9-4.8-12.1l-0.1-1.6c0,0,0,0,0-0.1c0,0,0,0,0.1,0
					l1.4,0.2c0.1,0,14.5,1.7,29.7,1.7c1.5,0,3,0,4.5-0.1c16.7-0.4,27.6-3.8,27.7-3.8c0,0,1.4-0.4,1.4-0.4c0,0,0,0,0,0c0,0,0,0,0,0.1
					l0.1,1.7c0,0.3,0.2,8.3-5.5,15.3c-5.4,6.6-14.1,10.1-25.8,10.4C179.9,238.8,179.4,238.8,178.9,238.8z M149.5,217
					c3.4,17.6,23.3,19,29.3,19c0.5,0,0.9,0,1.4,0c11.1-0.3,19.1-3.5,24.1-9.5c3.5-4.3,4.4-9,4.7-11.4c-3.6,0.9-13.2,3.1-26.7,3.4
					c-1.5,0-3,0.1-4.5,0.1C165.6,218.5,154.1,217.4,149.5,217z"/>
				<path class="st3" d="M211.5,211.4l0.1,1.7c0,0.3,0.2,8.2-5.5,15.2c-5.4,6.6-14.1,10.1-25.8,10.4c-0.5,0-1,0-1.4,0
					c-15.5,0-23.3-6.1-27.2-11.2c-4.4-5.9-4.8-11.8-4.8-12.1l-0.1-1.6l1.4,0.2c0.2,0,14.4,1.7,29.7,1.7c1.5,0,3,0,4.5-0.1
					c16.7-0.4,27.6-3.8,27.8-3.8L211.5,211.4 M209.1,214.9c-3.6,1-13.3,3.1-26.8,3.5c-1.5,0-3,0.1-4.5,0.1
					c-12.5,0-24.3-1.1-28.4-1.5c0.9,4.9,5.7,19.2,29.4,19.2c0.5,0,0.9,0,1.4,0c11.1-0.3,19.2-3.5,24.1-9.5
					C207.9,222.1,208.9,217.4,209.1,214.9 M211.5,211.3C211.5,211.3,211.5,211.3,211.5,211.3l-1.5,0.5c-0.1,0-11.1,3.4-27.7,3.8
					c-1.4,0-2.9,0.1-4.5,0.1c-15.3,0-29.5-1.7-29.7-1.7l-1.4-0.2c0,0,0,0,0,0c0,0-0.1,0-0.1,0s-0.1,0.1-0.1,0.1l0.1,1.6
					c0,0.2,0.4,6.2,4.8,12.1c3.9,5.1,11.7,11.3,27.3,11.3c0.5,0,0.9,0,1.4,0c11.8-0.3,20.5-3.8,25.9-10.4c5.7-7.1,5.5-15,5.5-15.3
					l-0.1-1.7C211.6,211.4,211.6,211.3,211.5,211.3C211.6,211.3,211.5,211.3,211.5,211.3L211.5,211.3z M177.9,218.6
					c1.5,0,3.1,0,4.5-0.1c13.3-0.3,22.9-2.4,26.6-3.4c-0.3,2.5-1.3,7.1-4.7,11.3c-4.9,6-13,9.2-24,9.5c-0.5,0-0.9,0-1.4,0
					c-10.1,0-17.9-2.6-23.1-7.7c-4.1-4-5.6-8.6-6.1-11.1C154.2,217.5,165.7,218.6,177.9,218.6L177.9,218.6z"/>
			</g>
		</g>
		<g id="F_3_" class="st4">
			<g class="st5">
				<path class="st0" d="M155.2,228C155.2,228,155.1,228,155.2,228c-1.1-0.7-2-1.5-2.9-2.3c-2.6-2.6-5.2-7.7-5.6-9.3
					c0,0,0-0.1,0-0.1s0,0,0.1,0l33.8,1.8c0,0,31-4.2,31-4.2c0,0,0,0,0.1,0s0,0.1,0,0.1c-0.6,1.9-3,7.9-5.4,10.5
					c-0.4,0.5-1,0.9-1.6,1.5l-2.3-0.6l-8.3,0.7l-12.4,0.3l-8.9,0.1l-14.9,1.3C157.8,227.6,155.2,228,155.2,228z"/>
				<path class="st3" d="M211.6,213.9L211.6,213.9 M211.6,213.9c-0.5,1.6-2.8,7.8-5.4,10.4c-0.5,0.5-1,1-1.6,1.5l-2.2-0.6l-8.3,0.6
					l-12.4,0.3l-8.9,0.1l-14.9,1.3l-2.6,0.4c-1-0.7-1.9-1.5-2.8-2.3c-2.6-2.6-5.2-7.7-5.6-9.3l33.8,1.8L211.6,213.9 M211.6,213.8
					L211.6,213.8L211.6,213.8L211.6,213.8L211.6,213.8L211.6,213.8C211.6,213.8,211.6,213.8,211.6,213.8l-31.1,4.2l-33.8-1.8h0
					c-0.1,0-0.1,0-0.1,0.1s0,0.1,0,0.1c0.5,1.6,3.1,6.8,5.7,9.4c0.8,0.8,1.8,1.6,2.8,2.3c0,0,0.1,0,0.1,0c0,0,0,0,0,0l2.6-0.4
					l14.9-1.3l8.9-0.1l12.4-0.3l8.3-0.6l2.2,0.6c0,0,0,0,0,0c0,0,0.1,0,0.1,0c0.6-0.5,1.1-1,1.6-1.5c2.5-2.6,4.9-8.6,5.5-10.5
					c0,0,0,0,0-0.1C211.8,213.9,211.7,213.8,211.6,213.8L211.6,213.8z M211.6,214.1L211.6,214.1L211.6,214.1L211.6,214.1z"/>
			</g>
			<g class="st5">
				<path class="st3" d="M149.6,231.6c-0.3,0-0.5-0.1-0.8-0.3c-0.5-0.5-0.6-1.3-0.1-1.9c2.4-3.3,6.8-3.9,10.1-3.9
					c3.1,0,5.6,0.6,5.9,0.6c0.6,0.1,1,0.9,0.9,1.6c-0.1,0.6-0.6,1.1-1.1,1.1c-0.1,0-0.2,0-0.2,0c-1.2-0.3-3.3-0.6-5.4-0.6
					c-2.8,0-6.6,0.5-8.4,3C150.2,231.5,149.9,231.6,149.6,231.6C149.6,231.6,149.6,231.6,149.6,231.6z"/>
				<path class="st3" d="M158.8,225.6c3.1,0,5.7,0.6,5.9,0.6c0.6,0.1,1,0.8,0.9,1.5c-0.1,0.6-0.6,1-1.1,1c-0.1,0-0.1,0-0.2,0
					c-1.2-0.3-3.2-0.6-5.4-0.6c-3.2,0-6.7,0.6-8.4,3c-0.2,0.3-0.5,0.4-0.8,0.4c0,0,0,0,0,0c-0.2,0-0.5-0.1-0.7-0.3
					c-0.5-0.4-0.5-1.2-0.1-1.8C151,226.3,155.2,225.6,158.8,225.6 M158.8,225.4c-3.3,0-7.8,0.7-10.2,4c-0.4,0.6-0.4,1.5,0.2,2
					c0.2,0.2,0.5,0.3,0.8,0.3c0.4,0,0.7-0.2,1-0.5c1.8-2.4,5.5-2.9,8.3-2.9c2.1,0,4.2,0.3,5.4,0.6c0.1,0,0.2,0,0.2,0
					c0.6,0,1.1-0.5,1.2-1.1c0.1-0.8-0.3-1.5-1-1.7C164.6,226,162,225.4,158.8,225.4L158.8,225.4z"/>
			</g>
			<g class="st5">
				<path class="st3" d="M161.4,233.1c-0.2,0-0.4,0-0.5-0.1c-0.6-0.3-0.8-1.1-0.6-1.8c2-4.8,5.8-7.3,11.2-7.3c0.2,0,0.5,0,0.8,0
					c4.1,0.2,7.7,1.7,7.8,1.8c0.6,0.3,0.9,1.1,0.7,1.7c-0.2,0.5-0.6,0.9-1.1,0.9c-0.1,0-0.3,0-0.4-0.1c0,0-3.7-1.6-7.7-1.6
					c-4.5,0-7.5,1.9-9.1,5.7C162.3,232.8,161.9,233.1,161.4,233.1C161.4,233.1,161.4,233.1,161.4,233.1z"/>
				<path class="st3" d="M171.5,223.9c0.2,0,0.5,0,0.8,0c4.1,0.2,7.6,1.7,7.8,1.8c0.6,0.2,0.9,1,0.6,1.6c-0.2,0.5-0.6,0.8-1,0.8
					c-0.1,0-0.3,0-0.4-0.1c-0.1,0-3.7-1.6-7.7-1.6c-3.5,0-7.3,1.2-9.2,5.8c-0.2,0.4-0.6,0.7-1,0.7c0,0,0,0,0,0c-0.2,0-0.3,0-0.5-0.1
					c-0.6-0.3-0.8-1.1-0.5-1.7C162.4,226.4,166.2,223.9,171.5,223.9 M171.5,223.8c-5.4,0-9.3,2.5-11.2,7.3c-0.3,0.7,0,1.5,0.6,1.9
					c0.2,0.1,0.4,0.1,0.6,0.1c0.5,0,0.9-0.3,1.1-0.8c1.6-3.8,4.6-5.7,9-5.7c4,0,7.6,1.6,7.6,1.6c0.1,0.1,0.3,0.1,0.5,0.1
					c0.5,0,1-0.4,1.2-0.9c0.2-0.7-0.1-1.5-0.7-1.8c-0.1-0.1-3.7-1.6-7.9-1.8C172,223.8,171.8,223.8,171.5,223.8L171.5,223.8z"/>
			</g>
			<g class="st5">
				<path class="st3" d="M177.1,232.7c-0.2,0-0.3,0-0.5-0.1c-0.6-0.3-0.8-1.1-0.5-1.8c1.9-4.8,5.6-7.3,10.8-7.3c0.2,0,0.5,0,0.8,0
					c3.9,0.2,7.2,1.6,7.6,1.8c0.6,0.3,0.9,1.1,0.7,1.7c-0.2,0.5-0.6,0.9-1.1,0.9c-0.1,0-0.3,0-0.4-0.1c0,0-3.6-1.6-7.5-1.6
					c-4.3,0-7.3,1.9-8.8,5.7C178,232.4,177.6,232.7,177.1,232.7C177.2,232.7,177.1,232.7,177.1,232.7z"/>
				<path class="st3" d="M186.9,223.6c0.2,0,0.5,0,0.7,0c4,0.2,7.4,1.7,7.6,1.8c0.6,0.3,0.8,1,0.6,1.6c-0.2,0.5-0.6,0.8-1,0.8
					c-0.1,0-0.3,0-0.4-0.1c-0.1,0-3.6-1.6-7.5-1.6c-3.4,0-7.1,1.2-8.9,5.8c-0.2,0.4-0.6,0.7-0.9,0.7c0,0,0,0,0,0
					c-0.2,0-0.3,0-0.5-0.1c-0.5-0.3-0.8-1.1-0.5-1.7C178.1,226.1,181.8,223.6,186.9,223.6 M186.9,223.5c-5.2,0-9,2.5-10.9,7.3
					c-0.3,0.7,0,1.5,0.6,1.9c0.2,0.1,0.4,0.1,0.5,0.1c0.5,0,0.9-0.3,1.1-0.8c1.5-3.8,4.4-5.7,8.7-5.7c3.8,0,7.4,1.6,7.4,1.6
					c0.1,0.1,0.3,0.1,0.4,0.1c0.5,0,1-0.4,1.1-0.9c0.2-0.7-0.1-1.5-0.7-1.8c-0.1-0.1-3.6-1.6-7.6-1.8
					C187.4,223.5,187.2,223.5,186.9,223.5L186.9,223.5z"/>
			</g>
			<g class="st5">
				<path class="st3" d="M191.8,232.2c-0.2,0-0.4,0-0.5-0.1c-0.6-0.3-0.8-1.1-0.6-1.8c1.9-4.6,5.7-7.1,11-7.1c0.2,0,0.5,0,0.7,0
					c4.1,0.2,7.5,1.7,7.7,1.8c0.6,0.3,0.9,1,0.7,1.7c-0.2,0.5-0.6,0.8-1.1,0.8c-0.1,0-0.3,0-0.4-0.1c0,0-3.6-1.6-7.5-1.6
					c-4.4,0-7.4,1.9-8.9,5.6C192.7,231.9,192.3,232.2,191.8,232.2C191.8,232.2,191.8,232.2,191.8,232.2z"/>
				<path class="st3" d="M201.7,223.3c0.2,0,0.5,0,0.7,0c4.1,0.2,7.5,1.7,7.6,1.8c0.6,0.2,0.8,1,0.6,1.6c-0.2,0.5-0.6,0.8-1,0.8
					c-0.1,0-0.3,0-0.4-0.1c-0.1,0-3.6-1.6-7.6-1.6c-3.4,0-7.1,1.2-9,5.6c-0.2,0.4-0.6,0.7-1,0.7c0,0,0,0,0,0c-0.2,0-0.3,0-0.5-0.1
					c-0.5-0.3-0.8-1-0.5-1.7C192.8,225.7,196.5,223.3,201.7,223.3 M201.7,223.1c-5.3,0-9.1,2.5-11,7.2c-0.3,0.7,0,1.5,0.6,1.9
					c0.2,0.1,0.4,0.1,0.5,0.1c0.5,0,0.9-0.3,1.1-0.8c1.5-3.7,4.5-5.6,8.8-5.6c3.9,0,7.5,1.6,7.5,1.6c0.1,0.1,0.3,0.1,0.4,0.1
					c0.5,0,1-0.4,1.1-0.9c0.2-0.7-0.1-1.5-0.7-1.8c-0.1-0.1-3.6-1.6-7.7-1.8C202.2,223.1,202,223.1,201.7,223.1L201.7,223.1z"/>
			</g>
			<g class="st5">
				<path class="st3" d="M152.6,228.3C152.6,228.3,152.5,228.3,152.6,228.3c-6.4-5.7-6.9-12.6-7-12.8l-0.1-1.6c0,0,0,0,0-0.1
					c0,0,0,0,0.1,0l1.4,0.2c0.1,0,14.9,1.7,30.6,1.7c1.6,0,3.2,0,4.8-0.1c17.3-0.4,28.7-3.8,28.9-3.8l1.4-0.4c0,0,0,0,0,0
					c0,0,0,0,0,0c0,0,0,0,0,0.1l0.1,1.7c0,0.3,0.2,6.5-4.6,12.4c0,0-0.1,0.1-0.2,0.1l-2.7-0.7c0,0,0,0-0.1-0.1s0-0.1,0-0.1
					c0.4-0.4,0.7-0.8,1-1.1c2.7-3.3,3.6-6.8,3.9-8.6c-3.8,1-13.9,3.2-27.7,3.5c-1.6,0-3.3,0.1-4.9,0.1c-12.7,0-24.6-1-29.2-1.5
					c0.6,2.4,2.3,6.7,7.2,10.4c0,0,0,0.1,0,0.1s0,0.1-0.1,0.1l-1.4-0.1L152.6,228.3C152.6,228.3,152.6,228.3,152.6,228.3z"/>
				<path class="st3" d="M212.7,211.4l0.1,1.7c0,0.3,0.2,6.4-4.6,12.4c0,0-0.1,0.1-0.1,0.1l-2.7-0.7c0.4-0.4,0.7-0.8,1-1.1
					c2.7-3.4,3.6-6.8,3.9-8.8c-3.8,0.9-13.9,3.2-27.8,3.5c-1.6,0-3.3,0.1-4.9,0.1c-12.9,0-25.1-1.1-29.3-1.5
					c0.6,2.4,2.3,6.8,7.3,10.5l-1.4-0.1c0,0-0.7,0.4-1.6,1c-6.3-5.6-6.9-12.3-6.9-12.8l-0.1-1.6l1.4,0.2c0.2,0,14.9,1.7,30.6,1.7
					c1.6,0,3.2,0,4.8-0.1c17.4-0.4,28.8-3.8,28.9-3.9L212.7,211.4 M212.7,211.2C212.7,211.2,212.7,211.2,212.7,211.2l-1.4,0.4
					c-0.1,0-11.6,3.4-28.8,3.8c-1.6,0-3.2,0.1-4.8,0.1c-15.8,0-30.5-1.6-30.6-1.7l-1.4-0.2c0,0,0,0,0,0c0,0-0.1,0-0.1,0
					s-0.1,0.1-0.1,0.1l0.1,1.6c0,0.3,0.5,7.2,6.9,12.9c0,0,0.1,0,0.1,0c0,0,0.1,0,0.1,0l1.6-0.9l1.4,0.1h0c0.1,0,0.1,0,0.1-0.1
					c0-0.1,0-0.1-0.1-0.2c-4.9-3.6-6.6-7.9-7.2-10.2c4.7,0.5,16.6,1.5,29.1,1.5c1.7,0,3.3,0,4.9-0.1c13.6-0.3,23.7-2.5,27.6-3.4
					c-0.3,1.9-1.2,5.2-3.8,8.5c-0.3,0.4-0.6,0.8-1,1.1c0,0-0.1,0.1,0,0.1c0,0.1,0.1,0.1,0.1,0.1l2.7,0.7c0,0,0,0,0,0
					c0,0,0.1,0,0.1-0.1l0,0c0,0,0,0,0.1-0.1c4.8-6,4.6-12.2,4.6-12.5l-0.1-1.7C212.9,211.3,212.8,211.3,212.7,211.2
					C212.8,211.3,212.7,211.2,212.7,211.2L212.7,211.2z"/>
			</g>
		</g>
		<g id="Ee_3_" class="st4">
			<g class="st5">
				<path class="st0" d="M178.9,237.1c-15.2,0-23.4-5.9-27.7-10.9c-4.6-5.4-5.7-10.8-5.7-10.9c0,0,0,0,0-0.1c0,0,0,0,0.1,0l34,1.2
					l33-3.5c0,0,0,0,0.1,0c0,0,0,0,0,0.1c0,0.2-2,23.3-32.3,24C179.8,237.1,179.4,237.1,178.9,237.1z"/>
				<path class="st3" d="M212.6,213.1c0,0-1.7,23.2-32.3,23.9c-0.5,0-0.9,0-1.4,0c-29.3,0-33.3-21.7-33.3-21.7l34,1.2L212.6,213.1
					 M212.6,213C212.6,213,212.6,213,212.6,213l-33.1,3.5l-33.9-1.2c0,0,0,0,0,0c0,0-0.1,0-0.1,0.1s0,0.1,0,0.1
					c0,0.1,1.1,5.5,5.7,10.9c7.7,9,19.4,10.9,27.8,10.9c0.5,0,0.9,0,1.4,0c8.8-0.2,20.7-2.5,27.7-12.3c4.2-5.9,4.7-11.7,4.7-11.8
					c0,0,0-0.1,0-0.1C212.7,213,212.6,213,212.6,213L212.6,213z M212.6,213.3L212.6,213.3L212.6,213.3L212.6,213.3z"/>
			</g>
			<g class="st5">
				<path class="st3" d="M151.6,225.9C151.5,225.9,151.5,225.9,151.6,225.9l-2.1-2.5c0,0,0-0.1,0-0.1c0,0,0,0,0.1,0l59.5-1.4
					c0,0,0.1,0,0.1,0c0,0,0,0.1,0,0.1l-1.6,2.6C207.5,224.5,151.6,225.9,151.6,225.9z"/>
				<path class="st3" d="M209,221.9l-1.6,2.6l-55.9,1.3l-2.1-2.5L209,221.9 M209,221.8L209,221.8l-59.5,1.4c-0.1,0-0.1,0-0.1,0.1
					c0,0.1,0,0.1,0,0.2l2.1,2.5c0,0,0.1,0.1,0.1,0.1l0,0l55.9-1.3c0.1,0,0.1,0,0.1-0.1l1.6-2.6c0-0.1,0-0.1,0-0.1
					C209.1,221.8,209.1,221.8,209,221.8L209,221.8z M209,222.1L209,222.1L209,222.1L209,222.1z"/>
			</g>
			<g class="st5">
				<path class="st3" d="M160.1,231.7C160.1,231.7,160,231.7,160.1,231.7l-8.5-5.8c0,0,0-0.1,0-0.1s0-0.1,0.1-0.1l55.9-1.3
					c0,0,0.1,0,0.1,0.1c0,0,0,0.1,0,0.1l-7.3,6.2C200.2,230.7,160.1,231.7,160.1,231.7z"/>
				<path class="st3" d="M207.4,224.5l-7.3,6.2l-40.1,0.9l-8.5-5.8L207.4,224.5 M207.4,224.4C207.4,224.4,207.4,224.4,207.4,224.4
					l-55.9,1.3c-0.1,0-0.1,0-0.1,0.1c0,0.1,0,0.1,0.1,0.2l8.5,5.8c0,0,0.1,0,0.1,0l0,0l40.1-0.9c0,0,0.1,0,0.1,0l7.3-6.2
					c0.1,0,0.1-0.1,0-0.2C207.5,224.4,207.5,224.4,207.4,224.4L207.4,224.4z M207.4,224.6L207.4,224.6L207.4,224.6L207.4,224.6z"/>
			</g>
			<g class="st5">
				<path class="st3" d="M179,238.5c-14.5,0-23.1-6-27.7-11c-5.3-5.7-6.9-11.4-6.9-11.7l-0.5-1.9c0,0,0-0.1,0-0.1c0,0,0,0,0.1,0
					l1.7,0.2c0.2,0,17.4,1.6,32.3,1.6c1.4,0,2.8,0,4.1-0.1c15.5-0.4,30.1-3.9,30.2-3.9l1.7-0.4c0,0,0,0,0.1,0c0,0,0,0,0,0.1l-0.3,2
					c0,0.2-4.1,24.4-33.5,25.1C179.9,238.5,179.4,238.5,179,238.5z M147.5,217c2.4,5.7,10.1,18.6,31.5,18.6c0.4,0,0.8,0,1.2,0
					c22-0.5,28.7-14.5,30.6-20.7c-4.6,1-16.4,3.2-28.7,3.5c-1.4,0-2.7,0.1-4.1,0.1C166.1,218.5,152.8,217.5,147.5,217z"/>
				<path class="st3" d="M214.1,211.4l-0.3,2c0,0.2-4.2,24.4-33.5,25.1c-0.4,0-0.8,0-1.3,0c-14.4,0-23-5.9-27.6-10.9
					c-5.2-5.7-6.8-11.4-6.9-11.6l-0.5-1.9l1.7,0.2c0.2,0,17.5,1.6,32.3,1.6c1.4,0,2.8,0,4.1-0.1c15.5-0.4,30.1-3.9,30.2-3.9
					L214.1,211.4 M210.9,214.9c-4.5,1-16.4,3.2-28.8,3.5c-1.4,0-2.7,0.1-4.1,0.1c-12.1,0-25.7-1.1-30.6-1.5
					c2.1,5.1,9.8,18.8,31.6,18.8c0.4,0,0.8,0,1.2,0C202.7,235.2,209.3,220.3,210.9,214.9 M214.1,211.2
					C214,211.2,214,211.2,214.1,211.2l-1.7,0.4c-0.1,0-14.8,3.5-30.2,3.9c-1.3,0-2.7,0.1-4.1,0.1c-14.9,0-32.1-1.6-32.3-1.6
					l-1.7-0.2h0c0,0-0.1,0-0.1,0.1c0,0,0,0.1,0,0.1l0.5,1.9c0.1,0.2,1.7,6,6.9,11.7c4.6,5,13.2,11,27.8,11c0.4,0,0.8,0,1.3,0
					c29.4-0.7,33.6-24.9,33.6-25.2l0.3-2C214.2,211.4,214.2,211.3,214.1,211.2C214.1,211.2,214.1,211.2,214.1,211.2L214.1,211.2z
					 M214.1,211.5L214.1,211.5L214.1,211.5L214.1,211.5z M178,218.6c1.4,0,2.8,0,4.1-0.1c12.2-0.3,23.9-2.5,28.6-3.5
					c-0.9,2.7-2.9,7.6-7.4,12c-5.7,5.4-13.4,8.3-23.1,8.5c-0.4,0-0.8,0-1.2,0c-21.2,0-28.9-12.7-31.4-18.4
					C153,217.6,166.2,218.6,178,218.6L178,218.6z"/>
			</g>
		</g>
		<g id="D_3_" class="st4">
			<g class="st5">
				<path class="st0" d="M178.9,234.8c-13.4,0-20.4-5.1-24-9.5c-3.9-4.7-4.6-9.4-4.6-9.5c0,0,0,0,0-0.1c0,0,0,0,0.1,0l29,1.3
					l28.6-2.9c0,0,0,0,0.1,0c0,0,0,0,0,0.1c0,0.2-1.2,20-27.9,20.6C179.8,234.8,179.4,234.8,178.9,234.8z"/>
				<path class="st3" d="M208.1,214.1c0,0-0.9,19.9-27.9,20.5c-0.4,0-0.9,0-1.3,0c-25.8,0-28.5-18.9-28.5-18.9l29,1.3L208.1,214.1
					 M208.1,214C208.1,214,208.1,214,208.1,214l-28.7,2.9l-29-1.3c0,0,0,0,0,0c0,0-0.1,0-0.1,0.1s0,0.1,0,0.1c0,0.1,0.7,4.8,4.6,9.5
					c3.6,4.3,10.7,9.5,24,9.5c0.4,0,0.8,0,1.3,0c7.7-0.2,18.2-2.2,24.2-10.6c3.6-5,3.9-10.1,3.9-10.1
					C208.2,214.1,208.2,214.1,208.1,214C208.1,214,208.1,214,208.1,214L208.1,214z M208.1,214.3L208.1,214.3L208.1,214.3
					L208.1,214.3z"/>
			</g>
			<g class="st5">
				<path class="st3" d="M153.9,225.8C153.9,225.8,153.8,225.8,153.9,225.8C153.8,225.8,153.8,225.8,153.9,225.8l-0.1-2.6
					c0,0,0-0.1,0.1-0.1l51.7-1.2c0,0,0,0,0.1,0c0,0,0,0,0,0.1l0.1,2.5c0,0,0,0.1-0.1,0.1C205.6,224.6,153.9,225.8,153.9,225.8z"/>
				<path class="st3" d="M205.5,222l0.1,2.5l-51.7,1.2l-0.1-2.5L205.5,222 M205.5,221.9L205.5,221.9l-51.7,1.2
					c-0.1,0-0.1,0.1-0.1,0.1l0.1,2.5c0,0,0,0.1,0.1,0.1c0,0,0.1,0,0.1,0l0,0l51.7-1.2c0.1,0,0.1-0.1,0.1-0.1l-0.1-2.5
					C205.7,222,205.7,221.9,205.5,221.9C205.6,221.9,205.6,221.9,205.5,221.9L205.5,221.9z"/>
			</g>
			<g class="st5">
				<path class="st3" d="M178.9,236.1c-14.4,0-21.7-5.4-25.2-9.9c-4.1-5.2-4.5-10.6-4.5-10.8l-0.1-1.6c0,0,0,0,0-0.1c0,0,0,0,0.1,0
					l1.4,0.2c0.1,0,13.5,1.7,27.8,1.7c1.3,0,2.5,0,3.8,0c15.2-0.4,25.2-3.6,25.6-3.8l1.4-0.5c0,0,0,0,0,0c0,0,0,0,0,0c0,0,0,0,0,0.1
					l0.1,1.7c0,0.3,0.2,7.1-4.8,13.3c-5,6.1-13.1,9.4-24.3,9.6C179.8,236.1,179.3,236.1,178.9,236.1z M151.9,216.9
					c1.1,5,5.9,16.3,26.9,16.3c0.4,0,0.9,0,1.4,0c10.4-0.2,18-3.2,22.5-8.7c2.9-3.6,3.8-7.4,4.1-9.5c-3.4,0.9-12.3,3.1-24.6,3.4
					c-1.3,0-2.6,0-3.8,0C166.9,218.5,156.1,217.4,151.9,216.9z"/>
				<path class="st3" d="M209.2,211.4l0.1,1.7c0,0.3,0.2,7.1-4.8,13.2c-5,6.1-13.1,9.4-24.2,9.6c-0.5,0-0.9,0-1.4,0
					c-14.3,0-21.6-5.3-25.2-9.9c-4.1-5.2-4.5-10.5-4.5-10.8l-0.1-1.6l1.4,0.2c0.1,0,13.6,1.7,27.8,1.7c1.3,0,2.5,0,3.8,0
					c15.5-0.4,25.6-3.7,25.7-3.8L209.2,211.4 M206.8,215c-3.5,1-12.3,3.1-24.7,3.4c-1.3,0-2.6,0-3.8,0c-11.6,0-22.6-1.1-26.5-1.6
					c1,4.5,5.6,16.5,27,16.5c0.4,0,0.9,0,1.4,0c10.4-0.2,18-3.2,22.5-8.7C205.6,221,206.5,217.2,206.8,215 M209.2,211.3
					C209.2,211.3,209.2,211.3,209.2,211.3l-1.5,0.5c-0.1,0-10.2,3.4-25.6,3.8c-1.2,0-2.5,0-3.8,0c-14.3,0-27.6-1.7-27.8-1.7
					l-1.4-0.2c0,0,0,0,0,0c0,0-0.1,0-0.1,0s-0.1,0.1-0.1,0.1l0.1,1.6c0,0.2,0.4,5.6,4.5,10.8c3.6,4.5,10.9,9.9,25.3,9.9
					c0.5,0,0.9,0,1.4,0c11.2-0.3,19.4-3.5,24.3-9.7c5-6.2,4.8-13.1,4.8-13.4l-0.1-1.7C209.3,211.4,209.3,211.3,209.2,211.3
					C209.3,211.3,209.2,211.3,209.2,211.3L209.2,211.3z M178.3,218.6c1.3,0,2.6,0,3.8,0c12.2-0.3,21-2.4,24.5-3.3
					c-0.3,2.1-1.2,5.8-4,9.3c-4.5,5.5-12.1,8.4-22.4,8.7c-0.5,0-0.9,0-1.4,0c-20.8,0-25.7-11.1-26.8-16.2
					C156.3,217.5,167,218.6,178.3,218.6L178.3,218.6z"/>
			</g>
		</g>
		<g id="Aa" class="st4">
			<g id="_x32__4_" class="st5">
				<g>
					<path class="st0" d="M152.5,224.6C152.4,224.6,152.4,224.6,152.5,224.6l-2.2-10.2c0,0,0-0.1,0-0.1c0,0,0,0,0.1,0l11.1,1.6
						l15.1,0.9l11.8-0.3l9.9-1.5l9.9-2.1c0,0,0,0,0.1,0c0,0,0,0,0,0.1l-0.7,6.7l-1.6,3.6C205.8,223.3,153,224.6,152.5,224.6
						L152.5,224.6z"/>
					<path class="st3" d="M208.1,213l-0.7,6.7l-1.6,3.5c0,0-52.8,1.2-53.3,1.2l-2.1-10.1l11,1.6l15.1,0.9l11.8-0.3l9.9-1.5
						L208.1,213 M208.1,212.9C208.1,212.9,208.1,212.9,208.1,212.9l-9.9,2.1l-9.9,1.5l-11.8,0.3l-15.1-0.9l-11-1.6c0,0,0,0,0,0
						c0,0-0.1,0-0.1,0.1c0,0-0.1,0.1,0,0.1l2.1,10.1c0,0.1,0.1,0.1,0.1,0.1l0,0l53.4-1.2c0.1,0,0.1,0,0.1-0.1l1.6-3.5c0,0,0,0,0-0.1
						l0.7-6.7C208.2,213,208.2,213,208.1,212.9C208.2,212.9,208.1,212.9,208.1,212.9L208.1,212.9z M208.1,213.2L208.1,213.2
						L208.1,213.2L208.1,213.2z"/>
				</g>
				<g>
					<path class="st3" d="M173.3,248.9c-1.7,0-11.6-6.9-12-7.2l-6-8.3l-3.2-8.9c0,0,0-0.1,0-0.1s0,0,0.1,0l55-1.3c0,0,0,0,0.1,0
						c0,0,0,0,0,0.1l-0.5,4.5l-3.3,7.5l-5.7,7.1l-6.3,4.1c0,0-6.9,2.1-7,2.1c-0.1,0-2.6-0.1-5.2-0.1c-4.3,0-5.6,0.2-5.9,0.3
						C173.4,248.9,173.4,248.9,173.3,248.9L173.3,248.9z"/>
					<path class="st3" d="M207.2,223.2L207.2,223.2 M207.2,223.2l-0.5,4.5l-3.3,7.5l-5.7,7.1l-6.3,4.1l-6.9,2.1c0,0-2.5-0.1-5.1-0.1
						c-2.6,0-5.3,0.1-5.9,0.3c0,0-0.1,0-0.1,0c-1.7,0-11.9-7.2-11.9-7.2l-6-8.3l-3.2-8.9L207.2,223.2 M207.2,223.1L207.2,223.1
						L207.2,223.1L207.2,223.1L207.2,223.1C207.2,223.1,207.2,223.1,207.2,223.1C207.2,223.1,207.2,223.1,207.2,223.1
						C207.2,223.1,207.2,223.1,207.2,223.1C207.2,223.1,207.2,223.1,207.2,223.1C207.2,223.1,207.2,223.1,207.2,223.1
						C207.2,223.1,207.2,223.1,207.2,223.1l-55,1.3c-0.1,0-0.1,0-0.1,0.1s0,0.1,0,0.1l3.2,8.9c0,0,0,0,0,0l6,8.3c0,0,0,0,0,0
						c0.4,0.3,10.3,7.2,12,7.2c0.1,0,0.1,0,0.2,0c0.3-0.1,1.6-0.3,5.8-0.3c2.6,0,5.1,0.1,5.1,0.1l0,0c0,0,0,0,0,0l6.9-2.1
						c0,0,0,0,0,0l6.3-4.1c0,0,0,0,0,0l5.7-7.1c0,0,0,0,0,0l3.3-7.5c0,0,0,0,0,0l0.5-4.4c0,0,0,0,0,0
						C207.4,223.2,207.3,223.1,207.2,223.1L207.2,223.1z M207.2,223.4L207.2,223.4L207.2,223.4L207.2,223.4z"/>
				</g>
				<g>
					<path class="st3" d="M152.5,226.3C152.5,226.3,152.5,226.3,152.5,226.3C152.4,226.2,152.4,226.2,152.5,226.3l-0.1-2.6
						c0,0,0-0.1,0.1-0.1l54.2-1.3c0,0,0,0,0.1,0c0,0,0,0,0,0.1l0.1,2.5c0,0,0,0.1-0.1,0.1C206.7,225,152.5,226.3,152.5,226.3z"/>
					<path class="st3" d="M206.6,222.4l0.1,2.5l-54.2,1.3l-0.1-2.5L206.6,222.4 M206.6,222.2L206.6,222.2l-54.2,1.3
						c-0.1,0-0.1,0.1-0.1,0.1l0.1,2.5c0,0,0,0.1,0.1,0.1c0,0,0.1,0,0.1,0l0,0l54.2-1.3c0.1,0,0.1-0.1,0.1-0.1l-0.1-2.5
						c0,0,0-0.1-0.1-0.1C206.7,222.3,206.7,222.2,206.6,222.2L206.6,222.2z"/>
				</g>
				<g>
					<path class="st6" d="M178.2,249.3c-0.9,0-1.6-0.1-2.3-0.1c-1.1-1.4-1.7-3-1.7-4.6c-0.1-4.9,4.5-8.9,10.2-9.1h0.3
						c4.9,0,9.1,3,10.1,7.1L188,248c-0.1,0-4.5,1.2-9.1,1.3C178.7,249.3,178.4,249.3,178.2,249.3z"/>
					<path class="st3" d="M184.7,235.6c5,0,9.1,3,10,7l-6.7,5.3c0,0-4.4,1.2-9.1,1.3c-0.2,0-0.5,0-0.7,0c-0.9,0-1.7-0.1-2.3-0.1
						c-1-1.3-1.6-2.9-1.6-4.5c-0.1-4.8,4.4-8.9,10.1-9C184.5,235.6,184.6,235.6,184.7,235.6 M184.7,235.4c-0.1,0-0.2,0-0.3,0
						c-5.8,0.1-10.4,4.2-10.3,9.1c0,1.6,0.6,3.2,1.7,4.6c0,0,0.1,0.1,0.1,0.1c0.7,0.1,1.4,0.1,2.3,0.1c0.2,0,0.5,0,0.7,0
						c4.6-0.1,9.1-1.3,9.1-1.3c0,0,0,0,0.1,0l6.7-5.3c0,0,0.1-0.1,0.1-0.1C193.9,238.5,189.6,235.4,184.7,235.4L184.7,235.4z"/>
				</g>
				<g>
					<path class="st3" d="M179.7,249.6c-28.7,0-30.6-33.9-30.6-34.2l-0.1-1.6c0,0,0,0,0-0.1c0,0,0,0,0.1,0l1.4,0.2
						c0.1,0,13.5,1.7,27.8,1.7c1.3,0,2.5,0,3.8,0c15.2-0.4,25.2-3.6,25.6-3.8l1.4-0.5c0,0,0,0,0,0c0,0,0,0,0,0c0,0,0,0,0,0.1
						l0.1,1.7c0,0.7,0.4,16.3-8.2,27c-4.9,6.1-11.8,9.2-20.5,9.5C180.3,249.6,180,249.6,179.7,249.6z M151.8,216.9
						c0.4,3,1.3,8.8,4.1,14.5c4.9,10.2,12.9,15.4,23.9,15.4c0.3,0,0.6,0,0.8,0c7.9-0.2,14.2-3.1,18.7-8.5c6.3-7.7,7.4-18.7,7.6-23.1
						c-3.4,0.9-12.3,3.1-24.7,3.4c-1.3,0-2.6,0-3.8,0C166.9,218.5,156,217.4,151.8,216.9z"/>
					<path class="st3" d="M209.2,211.4l0.1,1.7c0,0.7,0.4,16.3-8.2,26.9c-4.9,6.1-11.8,9.2-20.4,9.4c-0.3,0-0.6,0-0.9,0
						c-28.6,0-30.5-33.8-30.6-34.1l-0.1-1.6l1.4,0.2c0.1,0,13.6,1.7,27.8,1.7c1.3,0,2.5,0,3.8,0c15.5-0.4,25.6-3.7,25.7-3.8
						L209.2,211.4 M206.9,215c-3.4,1-12.3,3.1-24.8,3.4c-1.3,0-2.6,0-3.8,0c-11.6,0-22.8-1.1-26.6-1.6c0.3,2.8,1.3,8.7,4.1,14.6
						c4.9,10.2,13,15.4,23.9,15.4c0.3,0,0.6,0,0.8,0c8-0.2,14.3-3.1,18.8-8.6C205.7,230.4,206.8,219.2,206.9,215 M209.2,211.3
						C209.2,211.3,209.2,211.3,209.2,211.3l-1.5,0.5c-0.1,0-10.2,3.4-25.6,3.8c-1.2,0-2.5,0-3.8,0c-14.3,0-27.6-1.7-27.8-1.7
						l-1.4-0.2c0,0,0,0,0,0c0,0-0.1,0-0.1,0s-0.1,0.1-0.1,0.1l0.1,1.6c0,0.3,1.9,34.3,30.7,34.3c0.3,0,0.6,0,0.9,0
						c8.7-0.2,15.6-3.4,20.5-9.5c8.7-10.7,8.3-26.4,8.3-27l-0.1-1.7C209.3,211.4,209.3,211.3,209.2,211.3
						C209.3,211.3,209.2,211.3,209.2,211.3L209.2,211.3z M178.3,218.6c1.3,0,2.6,0,3.8,0c12.3-0.3,21.2-2.4,24.6-3.4
						c-0.2,4.5-1.3,15.3-7.6,23c-4.5,5.5-10.7,8.3-18.6,8.5c-0.3,0-0.6,0-0.8,0c-10.9,0-18.9-5.1-23.8-15.3
						c-2.7-5.6-3.7-11.3-4.1-14.4C156.1,217.5,166.9,218.6,178.3,218.6L178.3,218.6z"/>
				</g>
				<path class="st8" d="M194.7,242.6c-0.9-4.1-1.4-7.2-10.3-7c-10.3,0.2-10.2,4.1-10.1,9"/>
			</g>
			<g id="_x31__3_" class="st5">
				<g>
					<path class="st0" d="M152.5,224.6C152.4,224.6,152.4,224.6,152.5,224.6l-2.2-10.2c0,0,0-0.1,0-0.1c0,0,0,0,0.1,0l11.1,1.6
						l15.1,0.9l11.8-0.3l9.9-1.5l9.9-2.1c0,0,0,0,0.1,0c0,0,0,0,0,0.1l-0.7,6.7l-1.6,3.6C205.8,223.3,153,224.6,152.5,224.6
						L152.5,224.6z"/>
					<path class="st3" d="M208.1,213l-0.7,6.7l-1.6,3.5c0,0-52.8,1.2-53.3,1.2l-2.1-10.1l11,1.6l15.1,0.9l11.8-0.3l9.9-1.5
						L208.1,213 M208.1,212.9C208.1,212.9,208.1,212.9,208.1,212.9l-9.9,2.1l-9.9,1.5l-11.8,0.3l-15.1-0.9l-11-1.6c0,0,0,0,0,0
						c0,0-0.1,0-0.1,0.1c0,0-0.1,0.1,0,0.1l2.1,10.1c0,0.1,0.1,0.1,0.1,0.1l0,0l53.4-1.2c0.1,0,0.1,0,0.1-0.1l1.6-3.5c0,0,0,0,0-0.1
						l0.7-6.7C208.2,213,208.2,213,208.1,212.9C208.2,212.9,208.1,212.9,208.1,212.9L208.1,212.9z M208.1,213.2L208.1,213.2
						L208.1,213.2L208.1,213.2z"/>
				</g>
				<g>
					<path class="st3" d="M173.2,243.8c-1.7,0-11.5-5.4-11.9-5.7l-6-6.6l-3.1-7c0,0,0-0.1,0-0.1c0,0,0,0,0.1,0l55-1.3c0,0,0,0,0.1,0
						c0,0,0,0,0,0.1l-0.5,3.6l-3.4,6l-5.7,5.7l-6.4,3.3c0,0-7,1.7-7,1.7c-0.1,0-2,0-4.1,0c-4,0-6.4,0.1-6.9,0.3
						C173.3,243.8,173.2,243.8,173.2,243.8L173.2,243.8z"/>
					<path class="st3" d="M207.2,223.2L207.2,223.2 M207.2,223.2l-0.5,3.6l-3.4,6l-5.7,5.6l-6.3,3.3l-6.9,1.7c0,0-1.9,0-4.1,0
						c-2.9,0-6.3,0.1-6.9,0.3c0,0-0.1,0-0.1,0c-1.7,0-11.9-5.6-11.9-5.6l-5.9-6.6l-3.1-7L207.2,223.2 M207.2,223.1L207.2,223.1
						L207.2,223.1L207.2,223.1L207.2,223.1C207.2,223.1,207.2,223.1,207.2,223.1C207.2,223.1,207.2,223.1,207.2,223.1
						C207.2,223.1,207.2,223.1,207.2,223.1C207.2,223.1,207.2,223.1,207.2,223.1C207.2,223.1,207.2,223.1,207.2,223.1
						C207.2,223.1,207.2,223.1,207.2,223.1l-55,1.3c-0.1,0-0.1,0-0.1,0.1c0,0,0,0.1,0,0.1l3.1,7c0,0,0,0,0,0l5.9,6.6c0,0,0,0,0,0
						c0.4,0.2,10.2,5.7,12,5.7c0.1,0,0.1,0,0.2,0c0.5-0.2,2.9-0.3,6.9-0.3c2.2,0,4.1,0,4.1,0l0,0c0,0,0,0,0,0l6.9-1.7l6.4-3.3
						c0,0,0,0,0,0l5.7-5.6c0,0,0,0,0,0l3.4-6c0,0,0,0,0-0.1l0.5-3.5c0,0,0,0,0,0C207.4,223.2,207.3,223.1,207.2,223.1L207.2,223.1z
						 M207.2,223.4L207.2,223.4L207.2,223.4L207.2,223.4z"/>
				</g>
				<g>
					<path class="st3" d="M152.5,226.3C152.5,226.3,152.5,226.3,152.5,226.3C152.4,226.2,152.4,226.2,152.5,226.3l-0.1-2.6
						c0,0,0-0.1,0.1-0.1l54.2-1.3c0,0,0,0,0.1,0c0,0,0,0,0,0.1l0.1,2.5c0,0,0,0.1-0.1,0.1C206.7,225,152.5,226.3,152.5,226.3z"/>
					<path class="st3" d="M206.6,222.4l0.1,2.5l-54.2,1.3l-0.1-2.5L206.6,222.4 M206.6,222.2L206.6,222.2l-54.2,1.3
						c-0.1,0-0.1,0.1-0.1,0.1l0.1,2.5c0,0,0,0.1,0.1,0.1c0,0,0.1,0,0.1,0l0,0l54.2-1.3c0.1,0,0.1-0.1,0.1-0.1l-0.1-2.5
						c0,0,0-0.1-0.1-0.1C206.7,222.3,206.7,222.2,206.6,222.2L206.6,222.2z"/>
				</g>
				<g>
					<path class="st6" d="M178.1,244.2c-0.9,0-1.6-0.1-2.3-0.1c-1.1-1.4-1.7-3-1.7-4.6c-0.1-4.9,4.5-8.9,10.2-9.1h0.3
						c4.9,0,9.1,3,10.1,7.1l0.4,2.3c-0.2,0.1-11.6,4.3-16.2,4.4C178.6,244.2,178.3,244.2,178.1,244.2z"/>
					<path class="st3" d="M184.6,230.5c5,0,9.1,3,10,7l0.4,2.3c0,0-11.4,4.2-16.1,4.3c-0.2,0-0.5,0-0.7,0c-0.9,0-1.7-0.1-2.3-0.1
						c-1-1.3-1.6-2.9-1.6-4.5c-0.1-4.8,4.4-8.9,10.1-9C184.4,230.5,184.5,230.5,184.6,230.5 M184.6,230.4c-0.1,0-0.2,0-0.3,0
						c-5.8,0.1-10.4,4.2-10.3,9.1c0,1.6,0.6,3.2,1.7,4.6c0,0,0.1,0.1,0.1,0.1c0.7,0.1,1.4,0.1,2.3,0.1c0.2,0,0.5,0,0.7,0
						c4.7-0.1,16.1-4.3,16.2-4.4c0.1,0,0.1-0.1,0.1-0.2l-0.4-2.3C193.8,233.4,189.5,230.4,184.6,230.4L184.6,230.4z"/>
				</g>
				<g>
					<path class="st3" d="M179.5,245c-28.6,0-30.4-29.3-30.4-29.6l-0.1-1.6c0,0,0,0,0-0.1c0,0,0,0,0.1,0l1.4,0.2
						c0.1,0,13.5,1.7,27.8,1.7c1.3,0,2.5,0,3.8,0c15.2-0.4,25.2-3.6,25.6-3.8l1.4-0.5c0,0,0,0,0,0c0,0,0,0,0,0c0,0,0,0,0,0.1
						l0.1,1.7c0,0.5,0.4,12.9-7.2,22.2c-5,6.2-12.3,9.4-21.7,9.6C180.2,245,179.9,245,179.5,245z M151.8,216.9
						c0.8,6.1,5.1,25.2,27.7,25.2c0.3,0,0.6,0,0.9,0c8.6-0.2,15.3-3.1,19.9-8.7c5.3-6.4,6.3-14.9,6.5-18.4
						c-3.4,0.9-12.3,3.1-24.7,3.4c-1.3,0-2.6,0-3.8,0C166.9,218.5,156,217.4,151.8,216.9z"/>
					<path class="st3" d="M209.2,211.4l0.1,1.7c0,0.5,0.4,12.9-7.1,22.1c-5,6.2-12.3,9.4-21.6,9.6c-0.3,0-0.7,0-1,0
						c-28.5,0-30.3-29.2-30.3-29.5l-0.1-1.6l1.4,0.2c0.1,0,13.6,1.7,27.8,1.7c1.3,0,2.5,0,3.8,0c15.5-0.4,25.6-3.7,25.7-3.8
						L209.2,211.4 M206.9,215c-3.4,1-12.3,3.1-24.7,3.4c-1.3,0-2.6,0-3.8,0c-11.6,0-22.8-1.1-26.6-1.6c0.8,5.8,5,25.4,27.8,25.4
						c0.3,0,0.6,0,0.9,0c8.7-0.2,15.4-3.1,19.9-8.7C205.7,227,206.7,218.6,206.9,215 M209.2,211.3
						C209.2,211.3,209.2,211.3,209.2,211.3l-1.5,0.5c-0.1,0-10.2,3.4-25.6,3.8c-1.2,0-2.5,0-3.8,0c-14.3,0-27.6-1.7-27.8-1.7
						l-1.4-0.2c0,0,0,0,0,0c0,0-0.1,0-0.1,0s-0.1,0.1-0.1,0.1l0.1,1.6c0,0.3,1.8,29.7,30.5,29.7c0.3,0,0.7,0,1,0
						c9.4-0.2,16.7-3.5,21.7-9.7c7.6-9.3,7.2-21.7,7.2-22.2l-0.1-1.7C209.3,211.4,209.3,211.3,209.2,211.3
						C209.3,211.3,209.2,211.3,209.2,211.3L209.2,211.3z M178.3,218.6c1.3,0,2.6,0,3.8,0c12.3-0.3,21.1-2.4,24.6-3.4
						c-0.2,3.5-1.3,11.8-6.4,18.2c-4.5,5.6-11.2,8.5-19.8,8.7c-0.3,0-0.6,0-0.9,0c-22.4,0-26.8-18.9-27.6-25.1
						C156.2,217.5,166.9,218.6,178.3,218.6L178.3,218.6z"/>
				</g>
				<path class="st8" d="M194.6,237.5c-0.9-4.1-1.4-7.2-10.3-7c-10.3,0.2-10.2,4.1-10.1,9"/>
			</g>
		</g>
		<g id="Neutral_4_">
			<path class="st3" d="M179.6,222.7c-3.1,0-6.4-0.1-9.6-0.4c-10.8-0.9-18.8-3.2-19.1-3.3c0,0-0.1-0.1-0.1-0.1l0.5-2.5
				c0,0,0,0,0-0.1c0,0,0,0,0,0c0,0,0,0,0,0c0.1,0,12.8,3.6,28.3,3.6c10.6,0,20-1.6,27.9-4.9c0,0,0,0,0,0s0,0,0,0c0,0,0,0,0,0
				l0.8,2.4c0,0,0,0.1,0,0.1c-7.6,3.1-16.5,4.8-26.5,5.1C181.1,222.7,180.3,222.7,179.6,222.7z"/>
			<path class="st3" d="M207.6,215.2l0.8,2.4c-8.7,3.6-18.1,4.9-26.5,5.1c-0.8,0-1.6,0-2.4,0c-3.5,0-6.7-0.2-9.6-0.4
				c-11-1-19.1-3.3-19.1-3.3l0.5-2.5c0.2,0.1,12.8,3.6,28.4,3.6C188.7,220.1,198.6,218.9,207.6,215.2 M207.6,215
				C207.6,215,207.6,215,207.6,215c-8,3.3-17.3,4.9-27.9,4.9c-15.6,0-28.2-3.6-28.3-3.6c0,0,0,0,0,0c0,0-0.1,0-0.1,0
				c0,0-0.1,0.1-0.1,0.1l-0.5,2.5c0,0.1,0,0.1,0.1,0.2c0.1,0,8.2,2.3,19.2,3.3c3.2,0.3,6.5,0.4,9.6,0.4c0.8,0,1.6,0,2.4,0
				c10-0.2,18.9-1.9,26.5-5.1c0.1,0,0.1-0.1,0.1-0.2l-0.8-2.4C207.8,215.1,207.7,215.1,207.6,215C207.7,215,207.7,215,207.6,215
				L207.6,215z"/>
		</g>
	</g>
	<path id="_x2B_Nose" class="st3" d="M178.4,188c0,0-17,3.4,0,3.4S178.4,188,178.4,188z"/>
	<path id="_x2B_Right_Eyebrow" class="st3" d="M129.1,137c0,0,36.4,5.8,36.7-1.4C166,128.5,129.1,137,129.1,137z"/>
	<path id="_x2B_Left_Eyebrow" class="st3" d="M222.5,135c0,0-33.2-7.6-34-0.1C187.7,142.3,222.5,135,222.5,135z"/>
</g>
</svg>
